<?xml version="1.0" standalone="no"?>
<!DOCTYPE svg PUBLIC "-//W3C//DTD SVG 1.1//EN" "http://www.w3.org/Graphics/SVG/1.1/DTD/svg11.dtd" >
<svg xmlns="http://www.w3.org/2000/svg">
<metadata>Generated by IcoMoon</metadata>
<defs>
<font id="iconiran" horiz-adv-x="1024">
<font-face units-per-em="1024" ascent="960" descent="-64" />
<missing-glyph horiz-adv-x="1024" />
<glyph unicode="&#x20;" horiz-adv-x="512" d="" />
<glyph unicode="&#xe900;" glyph-name="linkedin-in" horiz-adv-x="896" d="M200.56 64h-185.76v598.2h185.76zM107.58 743.8c-59.4 0-107.58 49.2-107.58 108.6 0 59.415 48.165 107.58 107.58 107.58s107.58-48.165 107.58-107.58v0c0-59.4-48.2-108.6-107.58-108.6zM895.8 64h-185.36v291.2c0 69.4-1.4 158.4-96.58 158.4-96.58 0-111.38-75.4-111.38-153.4v-296.2h-185.56v598.2h178.16v-81.6h2.6c24.8 47 85.38 96.6 175.76 96.6 188 0 222.56-123.8 222.56-284.6v-328.6z" />
<glyph unicode="&#xe901;" glyph-name="youtube" horiz-adv-x="1152" d="M1099.31 711.834c-12.562 47.3-49.574 84.552-96.568 97.194-85.18 22.972-426.742 22.972-426.742 22.972s-341.56 0-426.742-22.972c-46.994-12.644-84.006-49.894-96.568-97.194-22.824-85.734-22.824-264.61-22.824-264.61s0-178.876 22.824-264.61c12.562-47.3 49.574-83 96.568-95.642 85.182-22.972 426.742-22.972 426.742-22.972s341.56 0 426.742 22.972c46.994 12.642 84.006 48.342 96.568 95.642 22.824 85.734 22.824 264.61 22.824 264.61s0 178.876-22.824 264.61zM464.29 284.818v324.812l285.478-162.41-285.478-162.402z" />
<glyph unicode="&#xe902;" glyph-name="telegram-plane" horiz-adv-x="896" d="M893.4 762.8l-135.2-637.6c-10.2-45-36.8-56.2-74.6-35l-206 151.8-99.4-95.6c-11-11-20.2-20.2-41.4-20.2l14.8 209.8 381.8 345c16.6 14.8-3.6 23-25.8 8.2l-472-297.2-203.2 63.6c-44.2 13.8-45 44.2 9.2 65.4l794.8 306.2c36.8 13.8 69-8.2 57-64.4z" />
<glyph unicode="&#xe903;" glyph-name="facebook-f" horiz-adv-x="640" d="M558.28 384l28.44 185.32h-177.82v120.26c0 50.7 24.84 100.12 104.48 100.12h80.84v157.78s-73.36 12.52-143.5 12.52c-146.44 0-242.16-88.76-242.16-249.44v-141.24h-162.78v-185.32h162.78v-448h200.34v448z" />
<glyph unicode="&#xe904;" glyph-name="whatsapp" horiz-adv-x="896" d="M761.8 765.8c-83.8 84-195.4 130.2-314 130.2-244.8 0-444-199.2-444-444 0-78.2 20.4-154.6 59.2-222l-63-230 235.4 61.8c64.8-35.4 137.8-54 212.2-54h0.2c244.6 0 448.2 199.2 448.2 444 0 118.6-50.4 230-134.2 314zM447.8 82.6c-66.4 0-131.4 17.8-188 51.4l-13.4 8-139.6-36.6 37.2 136.2-8.8 14c-37 58.8-56.4 126.6-56.4 196.4 0 203.4 165.6 369 369.2 369 98.6 0 191.2-38.4 260.8-108.2s112.4-162.4 112.2-261c0-203.6-169.8-369.2-373.2-369.2zM650.2 359c-11 5.6-65.6 32.4-75.8 36-10.2 3.8-17.6 5.6-25-5.6s-28.6-36-35.2-43.6c-6.4-7.4-13-8.4-24-2.8-65.2 32.6-108 58.2-151 132-11.4 19.6 11.4 18.2 32.6 60.6 3.6 7.4 1.8 13.8-1 19.4s-25 60.2-34.2 82.4c-9 21.6-18.2 18.6-25 19-6.4 0.4-13.8 0.4-21.2 0.4s-19.4-2.8-29.6-13.8c-10.2-11.2-38.8-38-38.8-92.6s39.8-107.4 45.2-114.8c5.6-7.4 78.2-119.4 189.6-167.6 70.4-30.4 98-33 133.2-27.8 21.4 3.2 65.6 26.8 74.8 52.8s9.2 48.2 6.4 52.8c-2.6 5-10 7.8-21 13.2z" />
<glyph unicode="&#xe905;" glyph-name="instagram" horiz-adv-x="896" d="M448.2 678c-127.2 0-229.8-102.6-229.8-229.8s102.6-229.8 229.8-229.8 229.8 102.6 229.8 229.8-102.6 229.8-229.8 229.8zM448.2 298.8c-82.2 0-149.4 67-149.4 149.4s67 149.4 149.4 149.4 149.4-67 149.4-149.4-67.2-149.4-149.4-149.4zM741 687.4c0-29.8-24-53.6-53.6-53.6-29.8 0-53.6 24-53.6 53.6s24 53.6 53.6 53.6 53.6-24 53.6-53.6zM893.2 633c-3.4 71.8-19.8 135.4-72.4 187.8-52.4 52.4-116 68.8-187.8 72.4-74 4.2-295.8 4.2-369.8 0-71.6-3.4-135.2-19.8-187.8-72.2s-68.8-116-72.4-187.8c-4.2-74-4.2-295.8 0-369.8 3.4-71.8 19.8-135.4 72.4-187.8s116-68.8 187.8-72.4c74-4.2 295.8-4.2 369.8 0 71.8 3.4 135.4 19.8 187.8 72.4 52.4 52.4 68.8 116 72.4 187.8 4.2 74 4.2 295.6 0 369.6zM797.6 184c-15.6-39.2-45.8-69.4-85.2-85.2-59-23.4-199-18-264.2-18s-205.4-5.2-264.2 18c-39.2 15.6-69.4 45.8-85.2 85.2-23.4 59-18 199-18 264.2s-5.2 205.4 18 264.2c15.6 39.2 45.8 69.4 85.2 85.2 59 23.4 199 18 264.2 18s205.4 5.2 264.2-18c39.2-15.6 69.4-45.8 85.2-85.2 23.4-59 18-199 18-264.2s5.4-205.4-18-264.2z" />
<glyph unicode="&#xe906;" glyph-name="address-book" horiz-adv-x="896" d="M872 640c13.2 0 24 10.8 24 24v80c0 13.2-10.8 24-24 24h-40v64c0 70.6-57.4 128-128 128h-576c-70.6 0-128-57.4-128-128v-768c0-70.6 57.4-128 128-128h576c70.6 0 128 57.4 128 128v64h40c13.2 0 24 10.8 24 24v80c0 13.2-10.8 24-24 24h-40v128h40c13.2 0 24 10.8 24 24v80c0 13.2-10.8 24-24 24h-40v128h40zM768 64c0-35.2-28.8-64-64-64h-576c-35.2 0-64 28.8-64 64v768c0 35.2 28.8 64 64 64h576c35.2 0 64-28.8 64-64v-768zM416 416c88.4 0 160 71.6 160 160s-71.6 160-160 160-160-71.6-160-160 71.6-160 160-160zM416 672c53 0 96-43 96-96s-43-96-96-96-96 43-96 96 43 96 96 96zM509.6 384c-39 0-48.8-14-93.6-14s-54.6 14-93.6 14c-42.4 0-83.6-18.8-107.6-54.8-14.4-21.4-22.8-47.2-22.8-75v-78.2c0-8.8 7.2-16 16-16h32c8.8 0 16 7.2 16 16v78.2c0 14 4.2 27.6 12 39.2 11.2 16.6 31.6 26.4 54.6 26.4 24.8 0 41.6-14 93.6-14 51.8 0 68.6 14 93.6 14 23 0 43.4-10 54.6-26.4 7.8-11.6 12-25.2 12-39.2v-78.2c0-8.8 7.2-16 16-16h32c8.8 0 16 7.2 16 16v78.2c0 27.8-8.4 53.6-22.8 75-24.6 36-65.8 54.8-108 54.8z" />
<glyph unicode="&#xe907;" glyph-name="alarm-clock" d="M64 736c0.102 88.324 71.676 159.898 159.99 160h0.010c38.105-0.14 73.014-13.708 100.268-36.215l-0.268 0.215c18.8 7.727 41.783 15.136 65.415 20.888l3.465 0.712c-41.1 47.56-101.16 78.4-168.88 78.4-123.648-0.159-223.841-100.352-224-223.985v-0.015c0-51.72 18.34-98.82 48-136.78 11.463 24.698 23.066 45.445 36.002 65.24l-1.202-1.96c-11.647 21.262-18.584 46.547-18.8 73.434v0.066zM800 960c-67.72 0-127.78-30.84-168.88-78.5 27.097-6.464 50.080-13.873 72.284-22.81l-3.404 1.21c26.986 22.292 61.895 35.86 99.969 36h0.031c88.324-0.102 159.898-71.676 160-159.99v-0.010c-0.19-26.944-7.099-52.233-19.133-74.328l0.413 0.828c11.703-17.803 23.279-38.517 33.398-60.051l1.322-3.129c29.58 38 48 85.060 48 136.78-0.159 123.648-100.352 223.841-223.985 224h-0.015zM512 832c-247.42 0-448-200.58-448-448 0-0.071 0-0.154 0-0.238 0-112.336 41.552-214.967 110.125-293.361l-0.445 0.519-105-104.92c-2.899-2.896-4.693-6.899-4.693-11.32s1.793-8.424 4.692-11.32v0l22.62-22.62c2.896-2.899 6.899-4.693 11.32-4.693s8.424 1.793 11.32 4.692v0l104.98 105c77.96-68.13 180.668-109.678 293.080-109.678s215.12 41.549 293.604 110.127l-0.524-0.448 104.92-105.060c2.896-2.899 6.899-4.693 11.32-4.693s8.424 1.793 11.32 4.692v0l22.62 22.62c2.899 2.896 4.693 6.899 4.693 11.32s-1.793 8.424-4.692 11.32v0l-105 104.98c68.164 77.886 109.74 180.543 109.74 292.911 0 0.059 0 0.119 0 0.178v-0.009c0 247.42-200.58 448-448 448zM512 0c-211.74 0-384 172.26-384 384s172.26 384 384 384 384-172.26 384-384-172.26-384-384-384zM540.76 367.38v256.62c0 8.837-7.163 16-16 16v0h-32c-8.837 0-16-7.163-16-16v0-272c0.006-10.070 4.663-19.050 11.938-24.912l0.062-0.048 147.5-118c2.713-2.187 6.203-3.511 10.001-3.511 5.044 0 9.542 2.334 12.475 5.98l0.024 0.031 20 25c2.187 2.713 3.511 6.203 3.511 10.001 0 5.044-2.334 9.542-5.98 12.475l-0.031 0.024z" />
<glyph unicode="&#xe908;" glyph-name="align-justify" horiz-adv-x="896" d="M878 864h-864c-8.837 0-16-7.163-16-16v0-32c0-8.837 7.163-16 16-16v0h864c8.837 0 16 7.163 16 16v0 32c0 8.837-7.163 16-16 16v0zM878 96h-864c-8.837 0-16-7.163-16-16v0-32c0-8.837 7.163-16 16-16v0h864c8.837 0 16 7.163 16 16v0 32c0 8.837-7.163 16-16 16v0zM878 352h-864c-8.837 0-16-7.163-16-16v0-32c0-8.837 7.163-16 16-16v0h864c8.837 0 16 7.163 16 16v0 32c0 8.837-7.163 16-16 16v0zM878 608h-864c-8.837 0-16-7.163-16-16v0-32c0-8.837 7.163-16 16-16v0h864c8.837 0 16 7.163 16 16v0 32c0 8.837-7.163 16-16 16v0z" />
<glyph unicode="&#xe909;" glyph-name="ambulance" horiz-adv-x="1280" d="M592 576h-112v112c0 8.8-7.2 16-16 16h-96c-8.8 0-16-7.2-16-16v-112h-112c-8.8 0-16-7.2-16-16v-96c0-8.8 7.2-16 16-16h112v-112c0-8.8 7.2-16 16-16h96c8.8 0 16 7.2 16 16v112h112c8.8 0 16 7.2 16 16v96c0 8.8-7.2 16-16 16zM1264 192h-48v216.2c0 33.6-13.6 66.6-37.6 90.4l-167.8 167.8c-23.6 24-56.6 37.6-90.4 37.6h-88.2v98.8c0 51.4-44.4 93.2-98.8 93.2h-634.4c-54.4 0-98.8-41.8-98.8-93.2v-581.6c0-51.4 44.4-93.2 98.8-93.2h32.4c-2.2-10.4-3.2-21-3.2-32 0-88.4 71.6-160 160-160s160 71.6 160 160c0 11-1.2 21.6-3.2 32h390.4c-2.2-10.4-3.2-21-3.2-32 0-88.4 71.6-160 160-160s160 71.6 160 160c0 11-1.2 21.6-3.2 32h115.2c8.8 0 16 7.2 16 16v32c0 8.8-7.2 16-16 16zM288 0c-53 0-96 43-96 96s43 96 96 96 96-43 96-96-43-96-96-96zM768 192h-352.8c-29.2 38.6-75.2 64-127.2 64s-98-25.4-127.2-64h-62c-19.2 0-34.8 13-34.8 29.2v581.6c0 16.2 15.6 29.2 34.8 29.2h634.4c19.2 0 34.8-13 34.8-29.2v-610.8zM832 640h88.2c16.8 0 33.4-6.8 45.2-18.8l167.8-167.8c1.6-1.6 2.2-3.8 3.6-5.6h-304.8v192.2zM992 0c-53 0-96 43-96 96s43 96 96 96 96-43 96-96-43-96-96-96zM1152 192h-32.8c-29.2 38.6-75.2 64-127.2 64s-98-25.4-127.2-64h-32.8v192h320v-192z" />
<glyph unicode="&#xe90a;" glyph-name="analytics" horiz-adv-x="1152" d="M160 256h-128c-17.68 0-32-14.32-32-32v-256c0-17.68 14.32-32 32-32h128c17.68 0 32 14.32 32 32v256c0 17.68-14.32 32-32 32zM128 0h-64v192h64v-192zM1120 576h-128c-17.68 0-32-14.32-32-32v-576c0-17.68 14.32-32 32-32h128c17.68 0 32 14.32 32 32v576c0 17.68-14.32 32-32 32zM1088 0h-64v512h64v-512zM1005.54 782.64c14.7-9.12 31.88-14.64 50.46-14.64 53.020 0 96 42.98 96 96s-42.98 96-96 96-96-42.98-96-96c0-11.020 2.24-21.42 5.66-31.28l-179.2-143.36c-14.7 9.14-31.88 14.66-50.46 14.66s-35.76-5.52-50.46-14.66l-179.2 143.36c3.42 9.84 5.66 20.26 5.66 31.28 0 53.020-42.98 96-96 96s-96-42.98-96-96c0-14.8 3.62-28.64 9.6-41.16l-192.44-192.44c-12.52 5.98-26.36 9.6-41.16 9.6-53.020 0-96-42.98-96-96s42.98-96 96-96 96 42.98 96 96c0 14.8-3.62 28.64-9.6 41.16l192.44 192.44c12.52-5.98 26.36-9.6 41.16-9.6 18.58 0 35.76 5.52 50.46 14.66l179.2-143.36c-3.42-9.86-5.66-20.28-5.66-31.3 0-53.020 42.98-96 96-96s96 42.98 96 96c0 11.020-2.24 21.44-5.66 31.3l179.2 143.34zM1056 896c17.64 0 32-14.36 32-32s-14.36-32-32-32-32 14.36-32 32 14.36 32 32 32zM96 512c-17.64 0-32 14.36-32 32s14.36 32 32 32 32-14.36 32-32-14.36-32-32-32zM416 832c-17.64 0-32 14.36-32 32s14.36 32 32 32 32-14.36 32-32-14.36-32-32-32zM736 576c-17.64 0-32 14.36-32 32s14.36 32 32 32 32-14.36 32-32-14.36-32-32-32zM480 576h-128c-17.68 0-32-14.32-32-32v-576c0-17.68 14.32-32 32-32h128c17.68 0 32 14.32 32 32v576c0 17.68-14.32 32-32 32zM448 0h-64v512h64v-512zM800 320h-128c-17.68 0-32-14.32-32-32v-320c0-17.68 14.32-32 32-32h128c17.68 0 32 14.32 32 32v320c0 17.68-14.32 32-32 32zM768 0h-64v256h64v-256z" />
<glyph unicode="&#xe90b;" glyph-name="angle-double-left" horiz-adv-x="640" d="M306.2 465l235.6 232c9.4 9.4 24.6 9.4 34 0l14.2-14.2c9.4-9.4 9.4-24.6 0-34l-204.6-200.8 204.4-200.8c9.4-9.4 9.4-24.6 0-34l-14.2-14.2c-9.4-9.4-24.6-9.4-34 0l-235.6 232c-9.2 9.4-9.2 24.6 0.2 34zM50.2 431l235.6-232c9.4-9.4 24.6-9.4 34 0l14.2 14.2c9.4 9.4 9.4 24.6 0 34l-204.6 200.8 204.4 200.8c9.4 9.4 9.4 24.6 0 34l-14.2 14.2c-9.4 9.4-24.6 9.4-34 0l-235.6-232c-9.2-9.4-9.2-24.6 0.2-34z" />
<glyph unicode="&#xe90c;" glyph-name="angle-double-right" horiz-adv-x="640" d="M333.8 431l-235.6-232c-9.4-9.4-24.6-9.4-34 0l-14.2 14.2c-9.4 9.4-9.4 24.6 0 34l204.6 200.8-204.4 200.8c-9.4 9.4-9.4 24.6 0 34l14.2 14.2c9.4 9.4 24.6 9.4 34 0l235.6-232c9.2-9.4 9.2-24.6-0.2-34zM589.8 465l-235.6 232c-9.4 9.4-24.6 9.4-34 0l-14.2-14.2c-9.4-9.4-9.4-24.6 0-34l204.6-200.8-204.4-200.8c-9.4-9.4-9.4-24.6 0-34l14.2-14.2c9.4-9.4 24.6-9.4 34 0l235.6 232c9.2 9.4 9.2 24.6-0.2 34z" />
<glyph unicode="&#xe90d;" glyph-name="angle-down" horiz-adv-x="512" d="M239 306.2l-232 235.6c-9.4 9.4-9.4 24.6 0 34l14.2 14.2c9.4 9.4 24.6 9.4 34 0l200.8-204.6 200.8 204.4c9.4 9.4 24.6 9.4 34 0l14.2-14.2c9.4-9.4 9.4-24.6 0-34l-232-235.6c-9.4-9.2-24.6-9.2-34 0.2z" />
<glyph unicode="&#xe90e;" glyph-name="angle-left" horiz-adv-x="384" d="M50.2 465l235.6 232c9.4 9.4 24.6 9.4 34 0l14.2-14.2c9.4-9.4 9.4-24.6 0-34l-204.6-200.8 204.4-200.8c9.4-9.4 9.4-24.6 0-34l-14.2-14.2c-9.4-9.4-24.6-9.4-34 0l-235.6 232c-9.2 9.4-9.2 24.6 0.2 34z" />
<glyph unicode="&#xe90f;" glyph-name="angle-right" horiz-adv-x="384" d="M333.8 431l-235.6-232c-9.4-9.4-24.6-9.4-34 0l-14.2 14.2c-9.4 9.4-9.4 24.6 0 34l204.6 200.8-204.4 200.8c-9.4 9.4-9.4 24.6 0 34l14.2 14.2c9.4 9.4 24.6 9.4 34 0l235.6-232c9.2-9.4 9.2-24.6-0.2-34z" />
<glyph unicode="&#xe910;" glyph-name="angle-up" horiz-adv-x="512" d="M273 589.8l232-235.6c9.4-9.4 9.4-24.6 0-34l-14.2-14.2c-9.4-9.4-24.6-9.4-34 0l-200.8 204.6-200.8-204.4c-9.4-9.4-24.6-9.4-34 0l-14.2 14.2c-9.4 9.4-9.4 24.6 0 34l232 235.6c9.4 9.2 24.6 9.2 34-0.2z" />
<glyph unicode="&#xe911;" glyph-name="arrow-alt-left" horiz-adv-x="896" d="M790.8 640.2h-278.8v169.8c0 71-86 107-136.6 56.6l-344.6-344.2c-41.2-41.2-41.2-107.6 0-148.8l344.6-344.2c50.2-50.2 136.6-14.8 136.6 56.6v170h278.8c58 0 105.2 47.2 105.2 105.2v173.8c0 58-47.2 105.2-105.2 105.2zM832 361.2c0-22.8-18.4-41.2-41.2-41.2h-342.8v-234c0-14.2-17.2-21.4-27.4-11.4l-344.6 344.2c-16 16-16 42.2 0 58.2l344.6 344.2c10 10 27.4 3 27.4-11.4v-234h342.8c22.8 0 41.2-18.4 41.2-41.2z" />
<glyph unicode="&#xe912;" glyph-name="arrow-alt-right" horiz-adv-x="896" d="M64 534.86c0 22.721 18.419 41.14 41.14 41.14v0h342.86v234c0 0.004 0 0.008 0 0.013 0 8.837 7.163 16 16 16 4.421 0 8.424-1.793 11.32-4.692v0l344.68-344.2c7.461-7.445 12.078-17.738 12.078-29.11s-4.616-21.665-12.077-29.109l-0.001-0.001-344.68-344.16c-2.896-2.899-6.899-4.693-11.32-4.693-8.82 0-15.973 7.136-16 15.95v234.003h-342.86c-22.721 0-41.14 18.419-41.14 41.14 0 0.007 0 0.014 0 0.021v-0.001 173.7zM0 534.86v-173.7c0.057-58.048 47.093-105.092 105.133-105.16h278.867v-170c0-71.020 86-107 136.54-56.6l344.6 344.16c19.069 19.028 30.866 45.336 30.866 74.4s-11.797 55.372-30.864 74.398l-0.002 0.002-344.6 344.22c-50.24 50.18-136.54 14.7-136.54-56.58v-170h-278.86c-58.040-0.068-105.072-47.1-105.14-105.133v-0.007z" />
<glyph unicode="&#xe913;" glyph-name="arrow-left" horiz-adv-x="896" d="M463.072 8.93l14.142 14.14c9.372 9.372 9.372 24.568 0 33.942l-356.988 356.988h751.774c13.254 0 24 10.746 24 24v20c0 13.254-10.746 24-24 24h-751.774l356.988 356.988c9.372 9.372 9.372 24.568 0 33.942l-14.142 14.14c-9.372 9.372-24.568 9.372-33.94 0l-422.102-422.1c-9.372-9.372-9.372-24.568 0-33.942l422.102-422.1c9.372-9.372 24.568-9.372 33.94 0.002z" />
<glyph unicode="&#xe914;" glyph-name="arrow-right" horiz-adv-x="896" d="M432.928 887.070l-14.142-14.14c-9.372-9.372-9.372-24.568 0-33.942l356.988-356.988h-751.774c-13.254 0-24-10.746-24-24v-20c0-13.254 10.746-24 24-24h751.774l-356.988-356.988c-9.372-9.372-9.372-24.568 0-33.942l14.142-14.14c9.372-9.372 24.568-9.372 33.94 0l422.102 422.1c9.372 9.372 9.372 24.568 0 33.942l-422.102 422.098c-9.372 9.374-24.568 9.374-33.94 0z" />
<glyph unicode="&#xe915;" glyph-name="at" d="M512 944c-274.118 0-496-221.838-496-496 0-274.116 221.838-496 496-496 105.85 0 209.36 34.156 294.184 96.638 11.002 8.104 12.846 23.848 4.19 34.422l-10.148 12.396c-8.036 9.818-22.386 11.766-32.614 4.258-73.752-54.13-163.664-83.714-255.612-83.714-238.746 0-432 193.214-432 432 0 238.75 193.214 432 432 432 236.89 0 432-160.048 432-400 0-145.746-105.638-216.482-232.13-216.482-39.468 0-47.39 21.632-39.006 67.736l64.14 328.142c2.898 14.822-8.452 28.604-23.554 28.604h-24.842c-11.64 0-21.345-8.287-23.537-19.283l-0.025-0.153c-4.588-23.692-5.72-26.928-7.722-51.294-23.458 54.156-77.278 86.046-146.75 86.046-136.088 0-266.352-125.9-266.352-314.054 0-123.174 67.83-196.708 181.446-196.708 79.458 0 141.202 48.556 173.266 93.964-2.422-55.572 34.91-84.426 91.95-84.426 215.294 0 317.116 114.45 317.116 277.908 0 272.372-220.274 464-496 464zM436.16 258.746c-73.362 0-117.16 50.216-117.16 134.332 0 149.38 101.53 243.090 194.434 243.090 77.714 0 116.204-55.58 116.204-131.47 0-116.266-76.738-245.952-193.478-245.952z" />
<glyph unicode="&#xe916;" glyph-name="balance-scale" horiz-adv-x="1280" d="M1268.8 401.82l-218.1 351.94c-6.34 9.48-16.52 14.24-26.7 14.24s-20.36-4.76-26.7-14.24l-218.1-351.94c-7.74-11.56-12.18-25.44-11.020-39.28 10.94-131.34 121.3-234.54 255.82-234.54s244.88 103.2 255.82 234.54c1.16 13.84-3.28 27.72-11.020 39.28zM1024 192c-83.16 0-155.1 54.26-181.56 128h362.4c-26.84-74.46-98.28-128-180.84-128zM843.46 384l180.62 291.52 181.88-291.52h-362.5zM1072 0h-400v708.52c55.12 14.28 96 63.9 96 123.48h304c8.84 0 16 7.16 16 16v32c0 8.84-7.16 16-16 16h-322.22c-0.3 0.52-8.74 22.22-38.22 42.14-20.42 13.8-45.060 21.86-71.56 21.86s-51.14-8.060-71.56-21.86c-29.48-19.92-37.92-41.62-38.22-42.14h-322.22c-8.84 0-16-7.16-16-16v-32c0-8.84 7.16-16 16-16h304c0-59.58 40.88-109.2 96-123.48v-708.52h-400c-8.84 0-16-7.16-16-16v-32c0-8.84 7.16-16 16-16h864c8.84 0 16 7.16 16 16v32c0 8.84-7.16 16-16 16zM576 832c0 35.34 28.66 64 64 64s64-28.66 64-64-28.66-64-64-64-64 28.66-64 64zM511.82 362.54c1.16 13.84-3.28 27.72-11.020 39.28l-218.1 351.94c-6.34 9.48-16.52 14.24-26.7 14.24s-20.36-4.76-26.7-14.24l-218.1-351.94c-7.74-11.56-12.18-25.44-11.020-39.28 10.94-131.34 121.3-234.54 255.82-234.54s244.88 103.2 255.82 234.54zM256.080 675.52l181.88-291.52h-362.5l180.62 291.52zM74.44 320h362.4c-26.84-74.46-98.28-128-180.84-128-83.16 0-155.1 54.26-181.56 128z" />
<glyph unicode="&#xe917;" glyph-name="barcode" d="M0 64v768h36v-768h-36zM53.714 64.546v767.454h18.286v-767.454h-18.286zM108 64.546v767.454h17.714v-767.454h-17.714zM197.714 64.546v767.454h17.714v-767.454h-17.714zM269.714 64.546v767.454h35.428v-767.454h-35.428zM359.428 64.546v767.454h17.714v-767.454h-17.714zM395.428 64.546v767.454h17.714v-767.454h-17.714zM431.428 64.546v767.454h17.714v-767.454h-17.714zM502.858 64.546v767.454h36v-767.454h-36zM592.572 64.546v767.454h36v-767.454h-36zM664.57 64.546v767.454h36.002v-767.454h-36.002zM736.572 64.546v767.454h36.002v-767.454h-36.002zM790.286 64.546v767.454h36v-767.454h-36zM880.572 64.546v767.454h53.714v-767.454h-53.714zM952 64.546v767.454h18.286v-767.454h-18.286zM988 64v768h36v-768h-36z" />
<glyph unicode="&#xe918;" glyph-name="bars" horiz-adv-x="896" d="M884 732h-872c-6.627 0-12 5.373-12 12v0 48c0 6.627 5.373 12 12 12v0h872c6.627 0 12-5.373 12-12v0-48c0-6.627-5.373-12-12-12v0zM884 412h-872c-6.627 0-12 5.373-12 12v0 48c0 6.627 5.373 12 12 12v0h872c6.627 0 12-5.373 12-12v0-48c0-6.627-5.373-12-12-12v0zM884 92h-872c-6.627 0-12 5.373-12 12v0 48c0 6.627 5.373 12 12 12v0h872c6.627 0 12-5.373 12-12v0-48c0-6.627-5.373-12-12-12v0z" />
<glyph unicode="&#xe919;" glyph-name="battery-half" horiz-adv-x="1280" d="M1120 704c17.646 0 32-14.354 32-32v-96h64v-256h-64v-96c0-17.646-14.354-32-32-32h-1024c-17.646 0-32 14.354-32 32v448c0 17.646 14.354 32 32 32h1024zM1120 768h-1024c-53.020 0-96-42.98-96-96v-448c0-53.020 42.98-96 96-96h1024c53.020 0 96 42.98 96 96v32h16c26.51 0 48 21.49 48 48v288c0 26.51-21.49 48-48 48h-16v32c0 53.020-42.98 96-96 96zM256 332v232c0 6.627-5.373 12-12 12v0h-40c-6.627 0-12-5.373-12-12v0-232c0-6.627 5.373-12 12-12v0h40c6.627 0 12 5.373 12 12v0zM384 332v232c0 6.627-5.373 12-12 12v0h-40c-6.627 0-12-5.373-12-12v0-232c0-6.627 5.373-12 12-12v0h40c6.627 0 12 5.373 12 12v0zM512 332v232c0 6.627-5.373 12-12 12v0h-40c-6.627 0-12-5.373-12-12v0-232c0-6.627 5.373-12 12-12v0h40c6.627 0 12 5.373 12 12v0zM640 332v232c0 6.627-5.373 12-12 12v0h-40c-6.627 0-12-5.373-12-12v0-232c0-6.627 5.373-12 12-12v0h40c6.627 0 12 5.373 12 12v0z" />
<glyph unicode="&#xe91a;" glyph-name="bell" horiz-adv-x="896" d="M448 0c-35.32 0-64 28.76-64 64.060h-64c0-70.62 57.44-128.060 128-128.060s128 57.44 128 128.060h-64c0-35.3-28.68-64.060-64-64.060zM866.76 290.38c-55.92 53.24-98.68 108.96-98.68 297.82 0 159.18-126.78 289-288.080 304.7v35.1c0 17.68-14.32 32-32 32s-32-14.32-32-32v-35.12c-161.3-15.7-288.080-145.5-288.080-304.68 0-188.84-42.78-244.58-98.7-297.82-27.94-26.6-36.76-66.82-22.5-102.46 14.56-36.4 49.6-59.92 89.28-59.92h704c39.68 0 74.72 23.54 89.28 59.94 14.26 35.64 5.42 75.84-22.52 102.44zM800 192h-704c-28.46 0-42.68 32.94-22.64 52.020 69.72 66.38 118.56 140.68 118.56 344.16 0 134.76 114.54 243.82 256.080 243.82 141.52 0 256.080-109.040 256.080-243.8 0-202.7 48.42-277.4 118.56-344.16 20.12-19.18 5.7-52.040-22.64-52.040z" />
<glyph unicode="&#xe91b;" glyph-name="birthday-cake" horiz-adv-x="896" d="M192 768c-35.5 0-64 28.5-64 64 0 62 64 46 64 128 24 0 64-59 64-112s-28.5-80-64-80zM448 768c-35.5 0-64 28.5-64 64 0 62 64 46 64 128 24 0 64-59 64-112s-28.5-80-64-80zM704 768c-35.5 0-64 28.5-64 64 0 62 64 46 64 128 24 0 64-59 64-112s-28.5-80-64-80zM800 448h-64v288h-64v-288h-192v288h-64v-288h-192v288h-64v-288h-64c-53 0-96-43-96-96v-416h896v416c0 53-43 96-96 96zM832 0h-768v144.086c32.444 18.958 47.856 47.914 85.5 47.914 55.902 0 62.506-64 149.5-64 85.686 0 94.434 64 149 64 56.296 0 62.402-64 149.5-64 86.714 0 93.534 64 149.5 64 36.976 0 52.49-28.95 85-47.91v-144.090zM832 224.748c-19.252 15.748-42.434 31.252-85 31.252-86.86 0-93.65-64-149.5-64-55.39 0-62.908 64-149.5 64-85.684 0-94.436-64-149-64-56.296 0-62.404 64-149.5 64-42.926 0-66.202-15.548-85.5-31.316v127.316c0 17.644 14.356 32 32 32h704c17.644 0 32-14.356 32-32v-127.252z" />
<glyph unicode="&#xe91c;" glyph-name="books" horiz-adv-x="1152" d="M1150.66 47.14l-352.66 896.82c-3.44 9.84-12.78 16.040-22.7 16.040-6.020 0-9.94-2.060-22.98-6.62-12.92-4.52-19.64-16.48-12.54-36.76-32.92-19.38-118.3-48.18-151-52.84-2.66 7.56-3.94 13.24-12.8 18.46v13.76c0 35.34-28.66 64-64 64h-192c-11.92 0-22.44-4.14-32-9.8-9.54 5.66-20.060 9.8-31.98 9.8h-192c-35.34 0-64-28.66-64-64v-896c0-35.34 28.66-64 64-64h192c11.92 0 22.44 4.14 32 9.8 9.56-5.68 20.080-9.8 32-9.8h192c35.34 0 64 28.66 64 64v722.24l302.86-770.2c3.46-9.84 12.8-16.040 22.7-16.040 6 0 9.92 2.060 22.98 6.62 12.88 4.5 19.66 16.46 12.54 36.76 32.92 19.38 118.3 48.18 151 52.84 7.3-20.8 20.26-25.3 32.76-20.92l15.1 5.28c12.46 4.38 19.080 18.14 14.72 30.56zM256 0h-192v128h192v-128zM256 192h-192v512h192v-512zM256 768h-192v128h192v-128zM512 0h-192v128h192v-128zM512 192h-192v512h192v-512zM512 768h-192v128h192v-128zM918.3 32.92l-310.72 777.32c50.44 9.48 128.020 40.66 151 52.84l310.72-777.3c-50.46-9.5-128.020-40.66-151-52.86z" />
<glyph unicode="&#xe91d;" glyph-name="box-alt" horiz-adv-x="896" d="M895.8 608c0 21.2-5.2 42-15.2 60.6l-98.2 183.8c-8.6 26-33 43.6-60.6 43.6h-547.6c-27.6 0-52-17.6-60.8-43.8l-98.2-183.8c-10-18.6-15.2-39.4-15.2-60.6 0.2-121 0-543.8 0-543.8 0-35.4 28.6-64 64-64h768c35.4 0 64 28.6 64 64 0 0-0.2 422.8-0.2 544zM721.8 832l101.6-192h-251.2l-24 192h173.6zM384 576h128v-128h-128v128zM483.8 832l24-192h-119.6l24 192h71.6zM174.2 832h173.6l-24-192h-251.2l101.6 192zM64 64s0.2 362.2 0.2 512h255.8v-128c0-35.4 28.6-64 64-64h128c35.4 0 64 28.6 64 64v128h255.8c0-149.8 0.2-512 0.2-512h-768z" />
<glyph unicode="&#xe91e;" glyph-name="box-full" horiz-adv-x="1280" d="M1276.6 480.4l-103 205.6c-5.6 11.2-17 18-29.2 18-2 0 8.6 1.4-112.6-14l52.4 143.6c12 33.2-5 70-38.2 82l-111.4 40.6c-33 12-69.8-5-82-38.2l-85.6-235.4c-5.6 154-131.6 277.4-287 277.4-150.6 0-272.6-116-285.4-263.2-59 7.6-56.6 7.2-59 7.2-12.2 0-23.6-7-29.2-18l-103-205.6c-9.2-18.4 0.6-40.4 20.2-46l104.4-29.8v-294.6c0-29.4 20-55 48.4-62l432.4-108.2c27.2-6.8 50-3 62 0l432.8 108.2c28.4 7.2 48.4 32.8 48.4 62v294.6l104.2 29.8c19.8 5.6 29.4 27.6 20.4 46zM912.8 896l111.2-40.4-63.6-174.6-132-16.8 84.4 231.8zM77.6 485.4l76 152 380.8-48.6-120.2-199.6-336.6 96.2zM608 6l-416 104v276.2c246.6-70.4 230-66.2 236.6-66.2 11.2 0 22 5.8 28 15.8l151.4 251.2v-581zM640 640c-191.4 24.4-309.2 39.4-382.2 48.8 8.6 115.6 104.4 207.2 222.2 207.2 123.6 0 224-100.4 224-224 0-8.2-1.2-16.2-2.2-24.2l-61.8-7.8zM1088 110l-416-104v581l151.4-251c6-10 16.8-15.8 28-15.8 6.6 0-10.4-4.2 236.6 66.2v-276.4zM865.8 389.4l-120.2 199.6 380.8 48.6 76-152-336.6-96.2z" />
<glyph unicode="&#xe91f;" glyph-name="briefcase" d="M928 704h-224v144c0 26.52-21.48 48-48 48h-288c-26.52 0-48-21.48-48-48v-144h-224c-53.020 0-96-42.98-96-96v-512c0-53.020 42.98-96 96-96h832c53.020 0 96 42.98 96 96v512c0 53.020-42.98 96-96 96zM384 832h256v-128h-256v128zM960 96c0-17.64-14.36-32-32-32h-832c-17.64 0-32 14.36-32 32v288h320v-80c0-26.5 21.5-48 48-48h160c26.5 0 48 21.5 48 48v80h320v-288zM448 320v64h128v-64h-128zM960 448h-896v160c0 17.64 14.36 32 32 32h832c17.64 0 32-14.36 32-32v-160z" />
<glyph unicode="&#xe920;" glyph-name="bullhorn" horiz-adv-x="1152" d="M1088 590.24v305.76c0 17.48-13.96 64-63.98 64h-0.020c-14.24 0-28.38-4.76-39.96-14.040l-170.060-136.060c-85.42-68.28-192.66-105.9-301.98-105.9h-384c-70.7 0-128-57.3-128-128v-192c0-70.7 57.3-128 128-128l-0.96-64c0-79.54 18.52-154.7 51.12-221.88 10.38-21.38 33.040-34.12 56.8-34.12h212.56c52.1 0 83.38 59.68 51.8 101.12-32.8 43.040-52.3 96.72-52.3 154.88 0 22.22 3.24 43.58 8.82 64h56.16c109.32 0 216.56-37.62 301.96-105.9l170.060-136.060c10.844-8.735 24.783-14.026 39.957-14.040h0.003c49.84 0 64 45.56 64 64v305.76c38.1 22.18 64 62.98 64 110.24 0.020 47.26-25.88 88.060-63.98 110.24zM447.52 0l-211.78 0.060c-29.66 61.12-44.7 124.38-44.72 190.98l0.96 64 0.020 0.96h198.66c-4.62-21.4-7.62-42.86-7.62-64 0-70.58 22.6-137.56 64.48-192zM128 320c-35.28 0-64 28.72-64 64v192c0 35.28 28.72 64 64 64h384v-320h-384zM1024.1 66.14c-0.080-0.5-0.26-1.16-0.5-1.8l-169.66 135.74c-79.96 63.92-176.86 103.64-277.94 115.66v328.52c101.080 12.020 197.98 51.74 277.96 115.68l169.74 135.8c0.060-0.060 0.12-0.1 0.16-0.1 0.080 0 0.12 0.1 0.14 0.34l0.1-829.84z" />
<glyph unicode="&#xe921;" glyph-name="calendar-alt" horiz-adv-x="896" d="M800 832h-96v104c0 13.2-10.8 24-24 24h-16c-13.2 0-24-10.8-24-24v-104h-384v104c0 13.2-10.8 24-24 24h-16c-13.2 0-24-10.8-24-24v-104h-96c-53 0-96-43-96-96v-704c0-53 43-96 96-96h704c53 0 96 43 96 96v704c0 53-43 96-96 96zM96 768h704c17.6 0 32-14.4 32-32v-96h-768v96c0 17.6 14.4 32 32 32zM800 0h-704c-17.6 0-32 14.4-32 32v544h768v-544c0-17.6-14.4-32-32-32zM296 320h-80c-13.2 0-24 10.8-24 24v80c0 13.2 10.8 24 24 24h80c13.2 0 24-10.8 24-24v-80c0-13.2-10.8-24-24-24zM488 320h-80c-13.2 0-24 10.8-24 24v80c0 13.2 10.8 24 24 24h80c13.2 0 24-10.8 24-24v-80c0-13.2-10.8-24-24-24zM680 320h-80c-13.2 0-24 10.8-24 24v80c0 13.2 10.8 24 24 24h80c13.2 0 24-10.8 24-24v-80c0-13.2-10.8-24-24-24zM488 128h-80c-13.2 0-24 10.8-24 24v80c0 13.2 10.8 24 24 24h80c13.2 0 24-10.8 24-24v-80c0-13.2-10.8-24-24-24zM296 128h-80c-13.2 0-24 10.8-24 24v80c0 13.2 10.8 24 24 24h80c13.2 0 24-10.8 24-24v-80c0-13.2-10.8-24-24-24zM680 128h-80c-13.2 0-24 10.8-24 24v80c0 13.2 10.8 24 24 24h80c13.2 0 24-10.8 24-24v-80c0-13.2-10.8-24-24-24z" />
<glyph unicode="&#xe922;" glyph-name="cart-arrow-down" horiz-adv-x="1152" d="M1103.982 832h-845.422l-16.658 88.846c-4.258 22.702-24.080 39.154-47.178 39.154h-170.724c-13.254 0-24-10.746-24-24v-16c0-13.254 10.746-24 24-24h157.44l139.854-745.892c-20.684-22.736-33.294-52.948-33.294-86.108 0-70.692 57.308-128 128-128s128 57.308 128 128c0 0.042 0 0.092 0 0.141 0 23.519-6.375 45.549-17.491 64.456l0.325-0.597h290.334c-10.791-18.31-17.166-40.34-17.166-63.859 0-0.050 0-0.099 0-0.149v0.008c0-70.692 57.308-128 128-128s128 57.308 128 128c0 35.986-14.87 68.48-38.776 91.736-5.182 20.482-23.706 36.264-46.57 36.264h-592.096l-24 128h662.762c22.736 0 42.354 15.952 46.992 38.21l86.662 416c6.208 29.808-16.546 57.79-46.994 57.79zM480 64c0-35.29-28.71-64-64-64s-64 28.71-64 64 28.71 64 64 64 64-28.71 64-64zM928 0c-35.29 0-64 28.71-64 64s28.71 64 64 64 64-28.71 64-64-28.71-64-64-64zM1004.312 384h-661.752l-72 384h813.752l-80-384zM791.030 535.030l-102.058-102.058c-9.372-9.372-24.568-9.372-33.942 0l-102.058 102.058c-15.12 15.12-4.412 40.97 16.97 40.97h70.058v104c0 13.254 10.746 24 24 24h16c13.254 0 24-10.746 24-24v-104h70.058c21.382 0 32.090-25.852 16.972-40.97z" />
<glyph unicode="&#xe923;" glyph-name="cart-plus" horiz-adv-x="1152" d="M1103.982 832h-845.422l-16.658 88.846c-4.258 22.702-24.080 39.154-47.178 39.154h-170.724c-13.254 0-24-10.746-24-24v-16c0-13.254 10.746-24 24-24h157.44l139.854-745.892c-20.684-22.736-33.294-52.948-33.294-86.108 0-70.692 57.308-128 128-128s128 57.308 128 128c0 0.042 0 0.092 0 0.141 0 23.519-6.375 45.549-17.491 64.456l0.325-0.597h290.334c-10.791-18.31-17.166-40.34-17.166-63.859 0-0.050 0-0.099 0-0.149v0.008c0-70.692 57.308-128 128-128s128 57.308 128 128c0 35.986-14.87 68.48-38.776 91.736-5.182 20.482-23.706 36.264-46.57 36.264h-592.096l-24 128h662.762c22.736 0 42.354 15.952 46.992 38.21l86.662 416c6.208 29.808-16.546 57.79-46.994 57.79zM928 128c35.29 0 64-28.71 64-64s-28.71-64-64-64-64 28.71-64 64 28.71 64 64 64zM416 128c35.29 0 64-28.71 64-64s-28.71-64-64-64-64 28.71-64 64 28.71 64 64 64zM1004.312 384h-661.752l-72 384h813.752l-80-384zM544 568v16c0 13.254 10.746 24 24 24h72v72c0 13.254 10.746 24 24 24h16c13.254 0 24-10.746 24-24v-72h72c13.254 0 24-10.746 24-24v-16c0-13.254-10.746-24-24-24h-72v-72c0-13.254-10.746-24-24-24h-16c-13.254 0-24 10.746-24 24v72h-72c-13.254 0-24 10.746-24 24z" />
<glyph unicode="&#xe924;" glyph-name="cctv" horiz-adv-x="1152" d="M1112.68 473.76l-80.86 35.58c11.872 15.083 19.041 34.354 19.041 55.298 0 37.407-22.867 69.474-55.386 82.983l-0.595 0.219-695.28 305.72c-9.946 4.054-21.486 6.407-33.575 6.407-33.586 0-62.931-18.16-78.752-45.196l-0.233-0.431-175.040-306.34c-7.475-12.912-11.886-28.405-11.886-44.929 0-38.715 24.214-71.775 58.324-84.861l0.622-0.21 320.3-132.62-81.5-217.38h-233.86v112c0 8.837-7.163 16-16 16v0h-32c-8.837 0-16-7.163-16-16v0-288c0-8.837 7.163-16 16-16v0h32c8.837 0 16 7.163 16 16v0 112h256c0.014 0 0.030 0 0.046 0 13.628 0 25.266 8.518 29.88 20.521l0.074 0.219 88.5 236 143.18-59.28c9.228-3.468 19.893-5.475 31.027-5.475 17.815 0 34.43 5.139 48.444 14.014l-0.371-0.22 35.68 22.3 282-124c37.2-16.4 74 4.66 86.68 33.7l81.36 185.26c3.538 7.807 5.599 16.929 5.599 26.532 0 26.772-16.022 49.801-39.001 60.022l-0.418 0.166zM626.96 324.16c-4.008-2.652-8.928-4.231-14.216-4.231-2.824 0-5.542 0.45-8.088 1.283l0.184-0.052-523.16 216.64c-20 7.3-19.8 28.42-14 38.44l174.92 306.34c3.48 6 16 18.32 32.2 12l695.32-305.74c9.936-4.064 16.809-13.657 16.809-24.854 0-9.515-4.962-17.871-12.44-22.621l-0.109-0.065zM1004.18 226.78l-242 106.42 210.82 131.78 114.86-52z" />
<glyph unicode="&#xe925;" glyph-name="chalkboard" horiz-adv-x="1280" d="M1264 64h-48v768c0 35.34-28.66 64-64 64h-1024c-35.34 0-64-28.66-64-64v-768h-48c-8.84 0-16-7.16-16-16v-32c0-8.84 7.16-16 16-16h1248c8.84 0 16 7.16 16 16v32c0 8.84-7.16 16-16 16zM576 64v128h384v-128h-384zM1024 64v128c0 35.34-28.66 64-64 64h-384c-35.34 0-64-28.66-64-64v-128h-384v768h1024v-768h-128z" />
<glyph unicode="&#xe926;" glyph-name="chart-bar" d="M848 256h32c8.8 0 16 7.2 16 16v480c0 8.8-7.2 16-16 16h-32c-8.8 0-16-7.2-16-16v-480c0-8.8 7.2-16 16-16zM656 256h32c8.8 0 16 7.2 16 16v288c0 8.8-7.2 16-16 16h-32c-8.8 0-16-7.2-16-16v-288c0-8.8 7.2-16 16-16zM272 256h32c8.8 0 16 7.2 16 16v160c0 8.8-7.2 16-16 16h-32c-8.8 0-16-7.2-16-16v-160c0-8.8 7.2-16 16-16zM464 256h32c8.8 0 16 7.2 16 16v416c0 8.8-7.2 16-16 16h-32c-8.8 0-16-7.2-16-16v-416c0-8.8 7.2-16 16-16zM1008 128h-944v688c0 8.84-7.16 16-16 16h-32c-8.84 0-16-7.16-16-16v-720c0-17.68 14.32-32 32-32h976c8.84 0 16 7.16 16 16v32c0 8.84-7.16 16-16 16z" />
<glyph unicode="&#xe927;" glyph-name="check" horiz-adv-x="896" d="M827.010 776.098l-560.030-560.030-197.99 197.99c-9.372 9.372-24.568 9.372-33.942 0l-22.626-22.626c-9.372-9.372-9.372-24.568 0-33.942l237.588-237.588c9.372-9.372 24.568-9.372 33.942 0l599.626 599.626c9.372 9.372 9.372 24.568 0 33.942l-22.628 22.628c-9.372 9.372-24.568 9.372-33.94 0z" />
<glyph unicode="&#xe928;" glyph-name="chevron-left" horiz-adv-x="512" d="M476.95 8.93l14.142 14.14c9.372 9.372 9.372 24.568 0 33.942l-390.986 390.988 390.986 390.988c9.372 9.372 9.372 24.568 0 33.942l-14.142 14.14c-9.372 9.372-24.568 9.372-33.94 0l-422.102-422.1c-9.372-9.372-9.372-24.568 0-33.942l422.102-422.1c9.372-9.372 24.568-9.372 33.94 0.002z" />
<glyph unicode="&#xe929;" glyph-name="chevron-right" horiz-adv-x="512" d="M35.050 887.070l-14.142-14.14c-9.372-9.372-9.372-24.568 0-33.942l390.986-390.988-390.986-390.988c-9.372-9.372-9.372-24.568 0-33.942l14.142-14.14c9.372-9.372 24.568-9.372 33.94 0l422.102 422.1c9.372 9.372 9.372 24.568 0 33.942l-422.102 422.098c-9.372 9.374-24.568 9.374-33.94 0z" />
<glyph unicode="&#xe92a;" glyph-name="clipboard-check" horiz-adv-x="768" d="M672 832h-177.2c0.8 5.2 1.2 10.6 1.2 16 0 61.8-50.2 112-112 112s-112-50.2-112-112c0-5.4 0.4-10.8 1.2-16h-177.2c-53 0-96-43-96-96v-704c0-53 43-96 96-96h576c53 0 96 43 96 96v704c0 53-43 96-96 96zM384 896c26.6 0 48-21.4 48-48s-21.4-48-48-48-48 21.4-48 48 21.4 48 48 48zM704 32c0-17.6-14.4-32-32-32h-576c-17.6 0-32 14.4-32 32v704c0 17.6 14.4 32 32 32h96v-40c0-13.2 10.8-24 24-24h336c13.2 0 24 10.8 24 24v40h96c17.6 0 32-14.4 32-32v-704zM586.2 504.8c-9.4 9.4-24.6 9.4-34 0.2l-235.4-233.6-100.8 101.2c-9.4 9.4-24.6 9.4-34 0l-17-17c-9.4-9.4-9.4-24.6 0-34l134.8-135.2c9.4-9.4 24.6-9.4 34 0l269.6 267.4c9.4 9.4 9.4 24.6 0.2 34l-17.4 17z" />
<glyph unicode="&#xe92b;" glyph-name="clipboard-list-check" horiz-adv-x="768" d="M672 832h-177.2c0.8 5.2 1.2 10.6 1.2 16 0 61.8-50.2 112-112 112s-112-50.2-112-112c0-5.4 0.4-10.8 1.2-16h-177.2c-53 0-96-43-96-96v-704c0-53 43-96 96-96h576c53 0 96 43 96 96v704c0 53-43 96-96 96zM384 896c26.6 0 48-21.4 48-48s-21.4-48-48-48-48 21.4-48 48 21.4 48 48 48zM704 32c0-17.6-14.4-32-32-32h-576c-17.6 0-32 14.4-32 32v704c0 17.6 14.4 32 32 32h96v-40c0-13.2 10.8-24 24-24h336c13.2 0 24 10.8 24 24v40h96c17.6 0 32-14.4 32-32v-704zM224 304c-26.6 0-48-21.4-48-48s21.4-48 48-48 48 21.4 48 48-21.4 48-48 48zM560 288h-224c-8.8 0-16-7.2-16-16v-32c0-8.8 7.2-16 16-16h224c8.8 0 16 7.2 16 16v32c0 8.8-7.2 16-16 16zM252.4 419.2l128.4 127.2c4.2 4.2 4.2 11 0 15.2l-25.2 25.4c-4.2 4.2-11 4.2-15.2 0l-95.2-94.4-41.2 41.8c-4.2 4.2-11 4.2-15.2 0l-25.4-25.2c-4.2-4.2-4.2-11 0-15.2l74.2-74.8c3.8-4.2 10.6-4.2 14.8 0zM560 480h-155.2l-64.6-64h219.8c8.8 0 16 7.2 16 16v32c0 8.8-7.2 16-16 16z" />
<glyph unicode="&#xe92c;" glyph-name="clock" d="M512 944c-274 0-496-222-496-496s222-496 496-496 496 222 496 496-222 496-496 496zM944 448c0-237.4-192.2-432-432-432-237.4 0-432 192.2-432 432 0 237.4 192.2 432 432 432 237.4 0 432-192.2 432-432zM646.2 271.4l-162.4 118c-6.2 4.6-9.8 11.8-9.8 19.4v319.2c0 13.2 10.8 24 24 24h28c13.2 0 24-10.8 24-24v-292.6l141-102.6c10.8-7.8 13-22.8 5.2-33.6l-16.4-22.6c-7.8-10.6-22.8-13-33.6-5.2z" />
<glyph unicode="&#xe92d;" glyph-name="cloud-hail" d="M752 224c-26.6 0-48-21.4-48-48s21.4-48 48-48 48 21.4 48 48-21.4 48-48 48zM368 32c-26.6 0-48-21.4-48-48s21.4-48 48-48 48 21.4 48 48-21.4 48-48 48zM624 32c-26.6 0-48-21.4-48-48s21.4-48 48-48 48 21.4 48 48-21.4 48-48 48zM496 224c-26.6 0-48-21.4-48-48s21.4-48 48-48 48 21.4 48 48-21.4 48-48 48zM112 32c-26.6 0-48-21.4-48-48s21.4-48 48-48 48 21.4 48 48-21.4 48-48 48zM240 224c-26.6 0-48-21.4-48-48s21.4-48 48-48 48 21.4 48 48-21.4 48-48 48zM831.4 735.4c-7.8 89.8-83.6 160.6-175.4 160.6-35.6 0-69.6-10.6-98.4-30.4-45 59-114.6 94.4-189.6 94.4-132.4 0-240-107.6-240-240v-0.8c-76.6-32-128-107-128-191.2 0-114.6 93.4-208 208-208h608c114.6 0 208 93.4 208 208 0 109.6-85.2 199.6-192.6 207.4zM816 384h-608c-79.4 0-144 64.6-144 144 0 64.6 43.8 121.4 106.6 138.4l26.6 7.2-4 34.4c-0.6 4-1.2 8-1.2 12 0 97 79 176 176 176 64.4 0 123.6-35.8 154.4-93.6l21.2-39.6 30.4 33c21.8 23.4 50.8 36.2 82 36.2 61.8 0 112-50.2 112-112 0-3.2-0.6-6.2-1.6-13.8l-5-40 47 4.8c2.4 0.4 5 0.8 7.6 0.8 79.4 0 144-64.6 144-144s-64.6-143.8-144-143.8z" />
<glyph unicode="&#xe92e;" glyph-name="cog" d="M965.392 361.448l-65.22 37.654c1.958 14.684 3.075 31.661 3.075 48.899s-1.117 34.215-3.284 50.863l0.209-1.964 65.22 37.654c19.152 11.056 28.39 33.804 22.092 55.002-22.428 75.498-62.35 143.456-115.070 199.19-15.268 16.14-39.634 19.672-58.874 8.564l-65.124-37.596c-24.475 18.797-52.351 35.208-82.151 47.995l-2.527 0.965v75.228c0 22.26-15.304 41.608-36.968 46.734-75.288 17.818-154.236 17.82-229.54 0-21.662-5.126-36.968-24.472-36.968-46.734v-75.228c-32.327-13.752-60.203-30.162-85.603-49.641l0.925 0.681-65.124 37.596c-19.242 11.108-43.608 7.576-58.874-8.564-52.72-55.734-92.642-123.694-115.070-199.19-6.298-21.198 2.94-43.944 22.092-55.002l65.22-37.654c-1.958-14.684-3.075-31.661-3.075-48.899s1.117-34.215 3.284-50.863l-0.209 1.964-65.22-37.654c-19.152-11.056-28.39-33.804-22.092-55.002 22.428-75.496 62.35-143.456 115.070-199.19 15.268-16.14 39.634-19.672 58.874-8.566l65.124 37.596c24.474-18.798 52.351-35.207 82.151-47.994l2.527-0.964v-75.228c0-22.26 15.304-41.608 36.968-46.734 75.29-17.818 154.236-17.82 229.54 0 21.662 5.126 36.968 24.472 36.968 46.734v75.228c32.326 13.752 60.203 30.162 85.604 49.64l-0.926-0.682 65.124-37.596c19.24-11.108 43.606-7.576 58.874 8.566 52.72 55.734 92.642 123.694 115.070 199.19 6.298 21.198-2.94 43.944-22.092 55.002zM834.434 160.526l-92.618 53.48c-53.976-46.142-73.118-57.752-142.078-82.118v-106.958c-26.375-5.694-56.676-8.955-87.738-8.955s-61.363 3.261-90.578 9.459l2.84-0.504v106.958c-67.242 23.758-86.71 34.79-142.078 82.118l-92.618-53.48c-39.42 44.18-69.378 95.978-87.858 151.916l92.658 53.48c-13.070 70.834-13.076 93.288 0 164.158l-92.658 53.48c18.48 55.938 48.44 107.738 87.858 151.938l92.618-53.52c54.754 46.868 74.126 58.13 142.078 82.138v106.956c26.376 5.703 56.675 8.97 87.738 8.97s61.363-3.267 90.575-9.475l-2.837 0.505v-106.958c67.956-24.010 87.33-35.274 142.078-82.138l92.618 53.52c39.418-44.198 69.378-95.998 87.858-151.938l-92.658-53.48c13.072-70.852 13.076-93.288 0-164.158l92.658-53.48c-18.48-55.936-48.438-107.736-87.858-151.914zM512 640c-105.87 0-192-86.13-192-192s86.13-192 192-192 192 86.13 192 192-86.13 192-192 192zM512 320c-70.58 0-128 57.42-128 128s57.42 128 128 128 128-57.42 128-128-57.42-128-128-128z" />
<glyph unicode="&#xe92f;" glyph-name="coins" d="M672 896c-97.2 0-185.2-18-249-46.8-1.8-0.8-103-42-103-113.2v-33.4c-167.8-7-320-69.4-320-158.6v-384c0-88.4 157.6-160 352-160s352 71.6 352 160v32.8c179.4 7.4 320 75.8 320 159.2v384c0 74-124.2 160-352 160zM640 160c0-27.8-101-96-288-96s-288 68.2-288 96v100.2c63.6-41.2 168.8-68.2 288-68.2s224.4 27 288 68.2v-100.2zM640 352c0-27.8-101-96-288-96s-288 68.2-288 96v100.2c63.6-41.2 168.8-68.2 288-68.2s224.4 27 288 68.2v-100.2zM352 448c-162 0-293.4 43-293.4 96s131.4 96 293.4 96 293.4-43 293.4-96-131.4-96-293.4-96zM960 352c0-26.2-90-87.2-256-94.6v128.2c105.6 4.4 198.2 29.2 256 66.6v-100.2zM960 544c0-26.2-90.2-86.8-256-94.4v94.4c0 11.2-3.4 22-8.2 32.6 109.2 3.4 204.8 29 264.2 67.6v-100.2zM672 640c-14.6 0-28 1-41.8 1.8-73.8 43.4-170 56.4-231.2 60-12.6 10.6-20.2 22-20.2 34.2 0 53 131.4 96 293.4 96s293.4-43 293.4-96-131.6-96-293.6-96z" />
<glyph unicode="&#xe930;" glyph-name="comment" d="M512 832c247 0 448-158 448-352s-201-352-448-352c-56.6 0-112.6 8.6-166.4 25.6l-30.4 9.6-26-18.4c-46-32.6-117-70.6-205.2-79.2 24 30.2 59.6 80.8 81.6 139.2l14.2 37.4-27.4 29.2c-57.8 61.2-88.4 133.4-88.4 208.6 0 194 201 352 448 352zM512 896c-282.8 0-512-186.2-512-416 0-95.2 39.8-182.4 105.8-252.6-29.8-78.8-91.8-145.6-92.8-146.4-13.2-14-16.8-34.4-9.2-52s24.8-29 44-29c123 0 220 51.4 278.2 92.6 58-18.2 120.4-28.6 186-28.6 282.8 0 512 186.2 512 416s-229.2 416-512 416z" />
<glyph unicode="&#xe931;" glyph-name="comments" horiz-adv-x="1152" d="M1139.8 77.8c-1 0.8-45.2 48.4-75.8 109.8 55 54.2 88 122.2 88 196.4 0 160-153 292.2-352.4 315.8-62.8 115.2-211 196.2-383.6 196.2-229.8 0-416-143.2-416-320 0-74 33-142 88-196.4-30.6-61.4-74.6-109-75.4-109.8-12.6-13.4-16.2-33-8.8-50 7.2-17 24-28 42.4-28 107 0 193.4 40.4 250.4 77.6 18.2-4.2 36.8-7.4 56-9.6 63-115 211-196 383.6-196 41.6 0 81.6 4.8 119.6 13.6 57-37 143.2-77.6 250.4-77.6 18.4 0 35 11 42.4 28 7.2 17 3.8 36.6-8.8 50zM310.8 332l-26.4 6-22.8-14.8c-40.2-26.2-101-56.4-175.4-65 17.6 22.6 40.4 55.2 59 92.8l20.8 41.6-33 32.6c-31.6 31-69 82.4-69 150.8 0 141.2 158 256 352 256s352-114.8 352-256-158-256-352-256c-35.4 0-70.8 4-105.2 12zM890.4 131.2l-22.8 14.8-26.4-6.2c-34.4-8-69.8-12-105.2-12-130.2 0-244 51.8-304.8 128.6 222.6 6.4 400.8 146.8 400.8 319.6 0 19-2.6 37.4-6.6 55.4 150.8-29 262.6-128.8 262.6-247.4 0-68.4-37.4-119.8-69-150.8l-33-32.6 20.6-41.4c18.8-37.8 41.6-70.4 59-92.8-74.2 8.4-135 38.8-175.2 64.8z" />
<glyph unicode="&#xe932;" glyph-name="credit-card" horiz-adv-x="1152" d="M1056 896h-960c-53 0-96-43-96-96v-704c0-53 43-96 96-96h960c53 0 96 43 96 96v704c0 53-43 96-96 96zM96 832h960c17.6 0 32-14.4 32-32v-96h-1024v96c0 17.6 14.4 32 32 32zM1056 64h-960c-17.6 0-32 14.4-32 32v416h1024v-416c0-17.6-14.4-32-32-32zM384 232v-16c0-13.2-10.8-24-24-24h-144c-13.2 0-24 10.8-24 24v16c0 13.2 10.8 24 24 24h144c13.2 0 24-10.8 24-24zM768 232v-16c0-13.2-10.8-24-24-24h-272c-13.2 0-24 10.8-24 24v16c0 13.2 10.8 24 24 24h272c13.2 0 24-10.8 24-24z" />
<glyph unicode="&#xe933;" glyph-name="desktop-alt" horiz-adv-x="1152" d="M1056 960h-960c-53 0-96-43-96-96v-576c0-53 43-96 96-96h384l-48-192h-144c-17.6 0-32-14.4-32-32s14.4-32 32-32h576c17.6 0 32 14.4 32 32s-14.4 32-32 32h-144l-48 192h384c53 0 96 43 96 96v576c0 53-43 96-96 96zM498 0l32 128h92l32-128h-156zM1088 288c0-17.6-14.4-32-32-32h-960c-17.6 0-32 14.4-32 32v96h1024v-96zM1088 448h-1024v416c0 17.6 14.4 32 32 32h960c17.6 0 32-14.4 32-32v-416z" />
<glyph unicode="&#xe934;" glyph-name="dolly-flatbed" horiz-adv-x="1280" d="M416 256h768c17.6 0 32 14.4 32 32v512c0 17.6-14.4 32-32 32h-768c-17.6 0-32-14.4-32-32v-512c0-17.6 14.4-32 32-32zM704 768h192v-161.4l-72.2 28.8-23.8 9.6-23.8-9.6-72.2-28.8v161.4zM448 768h192v-256l160 64 160-64v256h192v-448h-704v448zM1264 128h-1008v816c0 8.8-7.2 16-16 16h-224c-8.8 0-16-7.2-16-16v-32c0-8.8 7.2-16 16-16h176v-816c0-8.8 7.2-16 16-16h117.8c-3.6-10-5.8-20.8-5.8-32 0-53 43-96 96-96s96 43 96 96c0 11.2-2.4 22-5.8 32h395.8c-3.6-10-5.8-20.8-5.8-32 0-53 43-96 96-96s96 43 96 96c0 11.2-2.4 22-5.8 32h181.6c8.8 0 16 7.2 16 16v32c0 8.8-7.2 16-16 16zM416 0c-17.6 0-32 14.4-32 32s14.4 32 32 32 32-14.4 32-32-14.4-32-32-32zM992 0c-17.6 0-32 14.4-32 32s14.4 32 32 32 32-14.4 32-32-14.4-32-32-32z" />
<glyph unicode="&#xe935;" glyph-name="envelope-open-dollar" d="M989.18 630.96c-3.96 3.26-44.38 35.82-93.18 75.060v61.98c0 35.34-28.66 64-64 64h-92.94c-8.26 6.62-15.42 12.32-20.4 16.28-44.2 35.34-119.78 111.72-206.66 111.72-86.42 0-161.28-75.44-206.68-111.72-5.060-4.020-12.2-9.74-20.4-16.28h-92.92c-35.34 0-64-28.66-64-64v-61.96c-49.040-39.42-89.5-72.020-92.96-74.86-21.459-17.734-35.033-44.351-35.040-74.139v-525.041c0-53.020 42.98-96 96-96h832c53.020 0 96 42.98 96 96v524.98c0 28.62-12.76 55.76-34.82 73.98zM512 896c43.54 0 89.28-33.44 126.28-64h-252.48c37.060 30.54 82.84 64 126.2 64zM192 768h640v-346.7c-64.66-52-130.6-104.88-173.18-138.68-33.7-26.86-100.38-91.36-146.82-90.62-46.42-0.76-113.12 63.76-146.82 90.64-42.58 33.8-108.48 86.66-173.18 138.68v346.68zM64 557.040c0 9.6 4.26 18.62 11.68 24.72 2.48 2.040 23.24 18.76 52.32 42.16v-151.1c-23.060 18.56-45.020 36.26-64 51.56v32.66zM960 32c0-17.64-14.36-32-32-32h-832c-17.64 0-32 14.36-32 32v410.18c85.5-68.88 198.62-159.84 261.36-209.64 40.98-32.72 113.48-105.060 186.64-104.52 72.9-0.52 144.54 70.92 186.62 104.52 62.82 49.86 175.86 140.78 261.38 209.66v-410.2zM960 524.38c-19.24-15.5-40.54-32.68-64-51.58v151.080c28.88-23.24 49.6-39.94 52.4-42.24 7.38-6.1 11.6-15.080 11.6-24.66v-32.6zM457.82 478.84l90-27c10.32-3.1 17.54-13.56 17.54-25.46 0-14.54-10.6-26.38-23.6-26.38h-56.22c-9.12 0-17.92 2.58-25.64 7.44-6.48 4.060-14.72 3.82-20.26-1.46l-23.5-22.42c-7.060-6.74-6.66-18.42 1.14-24.28 18.2-13.66 40.16-21.54 62.74-22.7v-32.58c0-8.84 7.16-16 16-16h32c8.84 0 16 7.16 16 16v32.24c47.24 1.26 85.34 41.080 85.34 90.14 0 39.94-25.96 75.62-63.16 86.78l-90 27c-10.32 3.1-17.54 13.56-17.54 25.46 0 14.54 10.6 26.38 23.6 26.38h56.22c9.12 0 17.92-2.58 25.64-7.44 6.48-4.060 14.72-3.82 20.26 1.46l23.5 22.42c7.060 6.74 6.66 18.42-1.14 24.28-18.2 13.66-40.16 21.54-62.74 22.7v32.58c0 8.84-7.16 16-16 16h-32c-8.84 0-16-7.16-16-16v-32.24c-47.24-1.26-85.34-41.1-85.34-90.14 0-39.94 25.96-75.62 63.16-86.78z" />
<glyph unicode="&#xe936;" glyph-name="envelope-open-text" d="M704 464v32c0 8.84-7.16 16-16 16h-352c-8.84 0-16-7.16-16-16v-32c0-8.84 7.16-16 16-16h352c8.84 0 16 7.16 16 16zM336 576h352c8.84 0 16 7.16 16 16v32c0 8.84-7.16 16-16 16h-352c-8.84 0-16-7.16-16-16v-32c0-8.84 7.16-16 16-16zM989.18 630.96c-3.96 3.26-44.38 35.82-93.18 75.060v61.98c0 35.34-28.66 64-64 64h-92.94c-8.26 6.62-15.42 12.32-20.4 16.28-44.2 35.34-119.78 111.72-206.66 111.72-86.42 0-161.28-75.44-206.68-111.72-5.060-4.020-12.2-9.74-20.4-16.28h-92.92c-35.34 0-64-28.66-64-64v-61.96c-49.040-39.42-89.5-72.020-92.96-74.86-21.459-17.734-35.033-44.351-35.040-74.139v-525.041c0-53.020 42.98-96 96-96h832c53.020 0 96 42.98 96 96v524.98c0 28.62-12.76 55.76-34.82 73.98zM512 896c43.54 0 89.28-33.44 126.28-64h-252.48c37.060 30.54 82.84 64 126.2 64zM192 768h640v-346.7c-64.66-52-130.6-104.88-173.18-138.68-33.7-26.86-100.38-91.36-146.82-90.62-46.42-0.76-113.12 63.76-146.82 90.64-42.58 33.8-108.48 86.66-173.18 138.68v346.68zM64 557.040c0 9.6 4.26 18.62 11.68 24.72 2.48 2.040 23.24 18.76 52.32 42.16v-151.1c-23.060 18.56-45.020 36.26-64 51.56v32.66zM960 32c0-17.64-14.36-32-32-32h-832c-17.64 0-32 14.36-32 32v410.18c85.5-68.88 198.62-159.84 261.36-209.64 40.98-32.72 113.48-105.060 186.64-104.52 72.9-0.52 144.54 70.92 186.62 104.52 62.82 49.86 175.86 140.78 261.38 209.66v-410.2zM960 524.38c-19.24-15.5-40.54-32.68-64-51.58v151.080c28.88-23.24 49.6-39.94 52.4-42.24 7.38-6.1 11.6-15.080 11.6-24.66v-32.6z" />
<glyph unicode="&#xe937;" glyph-name="exclamation-triangle" horiz-adv-x="1152" d="M540.4 640h71c6.8 0 12.2-5.6 12-12.4l-15-392c-0.2-6.4-5.6-11.6-12-11.6h-41c-6.4 0-11.8 5-12 11.6l-15 392c-0.2 6.8 5.2 12.4 12 12.4zM576 184c-31 0-56-25-56-56s25-56 56-56 56 25 56 56-25 56-56 56zM1139 80l-479.8 832c-36.8 64-129.4 64-166.4 0l-479.8-832c-36.8-63.8 9.2-144 83.2-144h959.8c73.6 0 120 80 83 144zM1056 0h-960c-24.6 0-40 26.6-27.8 48l480 832c12.2 21.2 43.2 21.4 55.4 0l480-832c12.4-21.2-3-48-27.6-48z" />
<glyph unicode="&#xe938;" glyph-name="file-archive" horiz-adv-x="768" d="M256 768v-64h64v64zM387.8 428.8c-2.2 11.2-12 19.2-23.6 19.2h-44.2v64h-64v-64l-38.8-194.4c-13-65 36.6-125.6 102.8-125.6s115.8 60.6 102.8 125.6zM320.6 179.8c-35.8 0-64.8 24.2-64.8 54s29 54 64.8 54 64.8-24.2 64.8-54-29-54-64.8-54zM256 640v-64h64v64zM384 832h-64v-64h64zM739.8 764.2l-167.8 167.8c-18 18-42.4 28.2-67.8 28.2h-408.2c-53-0.2-96-43.2-96-96.2v-832c0-53 43-96 96-96h576c53 0 96 43 96 96v664.2c0 25.4-10.2 50-28.2 68zM512 895c5.6-1.4 10.8-4.2 14.8-8.4l167.8-167.8c4-4 7-9.2 8.4-14.8h-191zM704 32c0-17.6-14.4-32-32-32h-576c-17.6 0-32 14.4-32 32v832c0 17.6 14.4 32 32 32h159.4v-64h64v64h128.6v-208c0-26.6 21.4-48 48-48h208zM384 576h-64v-64h64zM384 704h-64v-64h64z" />
<glyph unicode="&#xe939;" glyph-name="gem" horiz-adv-x="1152" d="M927.4 960h-702.8c-8.4 0-16.2-4.4-20.6-11.6l-200.6-325.6c-5.4-8.8-4.4-20.2 2.4-28l552-650.4c9.6-11.2 26.8-11.2 36.4 0l552 650.4c6.8 7.8 7.6 19.2 2.4 28l-200.6 325.6c-4.4 7.2-12.2 11.6-20.6 11.6zM900.2 888l148.6-248h-166l-113.6 248h131zM690 888l113.6-248h-455.4l113.8 248h228zM251.8 888h131l-113.6-248h-166l148.6 248zM122.4 576h146l163.6-384-309.6 384zM346.4 576h459l-229.4-527.6-229.6 527.6zM720 192l163.6 384h146l-309.6-384z" />
<glyph unicode="&#xe93a;" glyph-name="gift" d="M928 672h-78.6c19 26.8 30.6 59.8 30.6 96 0 88.2-66.8 160-149 160-84.6 0-133.6-50.8-219-191.6-85.4 140.8-134.4 191.6-219 191.6-82.2 0-149-71.8-149-160 0-36.2 11.6-69.2 30.6-96h-78.6c-53 0-96-43-96-96v-192c0-17.6 14.4-32 32-32h32v-288c0-53 43-96 96-96h704c53 0 96 43 96 96v288h32c17.6 0 32 14.4 32 32v192c0 53-43 96-96 96zM552.4 679.2c99 166.6 132 184.8 178.6 184.8 46.8 0 85-43 85-96s-38.2-96-85-96h-183l4.4 7.2zM293 864c46.8 0 79.6-18.2 178.6-184.8l4.2-7.2h-183c-46.8 0-85 43-85 96 0.2 53 38.4 96 85.2 96zM384 32h-224c-17.6 0-32 14.4-32 32v288h256v-320zM384 416h-320v160c0 17.6 14.4 32 32 32h288v-192zM576 32h-128v576h128v-576zM896 64c0-17.6-14.4-32-32-32h-224v320h256v-288zM960 416h-320v192h288c17.6 0 32-14.4 32-32v-160z" />
<glyph unicode="&#xe93b;" glyph-name="gift-card" horiz-adv-x="1152" d="M1056 704h-142.6c19 26.8 30.6 59.8 30.6 96 0 88.2-66.8 160-149 160-84.6 0-133.6-50.8-219-191.6-85.4 140.8-134.4 191.6-219 191.6-82.2 0-149-71.8-149-160 0-36.2 11.6-69.2 30.6-96h-142.6c-53.020 0-96-42.98-96-96v-576c0-53.020 42.98-96 96-96h960c53.020 0 96 42.98 96 96v576c0 53.020-42.98 96-96 96zM616.4 711.2c99 166.6 132 184.8 178.6 184.8 46.8 0 85-43 85-96s-38.2-96-85-96h-183l4.4 7.2zM357 896c46.8 0 79.6-18.2 178.6-184.8l4.2-7.2h-183c-46.8 0-85 43-85 96 0.2 53 38.4 96 85.2 96zM1088 32c0-17.64-14.36-32-32-32h-960c-17.64 0-32 14.36-32 32v64h1024v-64zM1088 160h-1024v128h1024v-128zM1088 352h-1024v256c0 17.68 14.32 32 32 32h402.76l-158.060-158.060c-6.24-6.24-6.24-16.38 0-22.62l22.62-22.62c6.24-6.24 16.38-6.24 22.62 0l190.060 190.060 190.060-190.060c6.24-6.24 16.38-6.24 22.62 0l22.62 22.62c6.24 6.24 6.24 16.38 0 22.62l-158.060 158.060h402.76c17.68 0 32-14.32 32-32v-256z" />
<glyph unicode="&#xe93c;" glyph-name="gifts" horiz-adv-x="1280" d="M1216 512h-54.6c14.2 20 22.6 43 22.6 67.8 0 61-50.6 124.2-135.6 124.2-85.8 0-149.2-69.6-184.4-124.4-35.4 54.8-98.6 124.4-184.4 124.4-14.4 0-27.2-2.4-39.6-5.6v5.6c0 35.4-28.6 64-64 64h-140.8l86.2 61.6c7.2 5.2 8.8 15.2 3.8 22.4l-18.6 26c-5.2 7.2-15.2 8.8-22.4 3.8l-106.2-76 45.6 121.4c3.2 8.2-1 17.4-9.4 20.6l-30 11.2c-8.2 3.2-17.6-1-20.6-9.4l-43.6-116.2-43.6 116.2c-3.2 8.2-12.4 12.4-20.6 9.4l-30-11.2c-8.2-3.2-12.4-12.4-9.4-20.6l45.6-121.4-106 75.8c-7.2 5.2-17.2 3.4-22.4-3.8l-18.6-26c-5.2-7.2-3.4-17.2 3.8-22.4l86-61.4h-140.8c-35.4 0-64-28.6-64-64v-704c0-35.4 28.6-64 64-64h1152c35.4 0 64 28.6 64 64v448c0 35.4-28.6 64-64 64zM679.6 640c75.2 0 132-91.8 149.4-128h-115c-43.8 0-68.8 12.4-82.2 22.8-15.6 12-23.8 27.6-23.8 45 0 29.6 26.8 60.2 71.6 60.2zM448 448v-448h-384v704h512v-44c-20.6-22.8-32-51.6-32-80.2 0-24.8 8.2-47.8 22.6-67.8h-54.6c-35.4 0-64-28.6-64-64zM832 0h-320v192h320v-192zM832 256h-320v192h320v-192zM1048.4 640c44.8 0 71.6-30.6 71.6-60.2 0-17.4-8.2-33-23.8-45-13.4-10.4-38.4-22.8-82.2-22.8h-115c17.4 36.2 74.2 128 149.4 128zM1216 0h-320v192h320v-192zM1216 256h-320v192h320v-192z" />
<glyph unicode="&#xe93d;" glyph-name="grin" horiz-adv-x="992" d="M496 944c-274 0-496-222-496-496s222-496 496-496 496 222 496 496-222 496-496 496zM496 16c-238.2 0-432 193.8-432 432s193.8 432 432 432 432-193.8 432-432-193.8-432-432-432zM742.2 318.4c-60.4-19.4-150.2-30.4-246.2-30.4s-185.8 11-246.2 30.4c-10.6 3.4-22.2 1-30.6-6.2-8.4-7.4-12.4-18.4-10.6-29.6 18.4-110 166.4-186.6 287.6-186.6s269 76.6 287.6 186.6c1.8 11-2.2 22.2-10.6 29.6-8.6 7.4-20.4 9.8-31 6.2zM496 160c-70 0-154 32.6-197 80.6 115-21.6 279.2-21.6 394.2 0-43.2-48-127.2-80.6-197.2-80.6zM336 480c35.4 0 64 28.6 64 64s-28.6 64-64 64-64-28.6-64-64 28.6-64 64-64zM656 480c35.4 0 64 28.6 64 64s-28.6 64-64 64-64-28.6-64-64 28.6-64 64-64z" />
<glyph unicode="&#xe93e;" glyph-name="grin-alt" horiz-adv-x="992" d="M496 944c-274 0-496-222-496-496s222-496 496-496 496 222 496 496-222 496-496 496zM496 16c-238.2 0-432 193.8-432 432s193.8 432 432 432 432-193.8 432-432-193.8-432-432-432zM368.6 448c24.8 37.4 30.2 74.6 31.4 112-1 37.4-6.6 74.6-31.4 112-16 24-50.2 22.8-65.4 0-24.8-37.4-30.2-74.6-31.4-112 1-37.4 6.6-74.6 31.4-112 16.2-24 50.4-22.8 65.4 0zM688.6 448c24.8 37.4 30.2 74.6 31.4 112-1 37.4-6.6 74.6-31.4 112-16 24-50.2 22.8-65.4 0-24.8-37.4-30.2-74.6-31.4-112 1-37.4 6.6-74.6 31.4-112 16.2-24 50.4-22.8 65.4 0zM742.2 318.4c-60.4-19.4-150.2-30.4-246.2-30.4s-185.8 11-246.2 30.4c-10.6 3.4-22.4 1-30.6-6.2-8.4-7.4-12.4-18.4-10.6-29.6 18.4-110 166.4-186.6 287.6-186.6s269 76.6 287.6 186.6c1.8 11-2.2 22.2-10.6 29.6-8.6 7.4-20.4 9.8-31 6.2zM496 160c-70 0-154 32.6-197 80.6 115-21.6 279.2-21.6 394.2 0-43.2-48-127.2-80.6-197.2-80.6z" />
<glyph unicode="&#xe93f;" glyph-name="grin-beam" horiz-adv-x="992" d="M235.4 464.6c6.8-2.2 14.8 1 18.6 7.4l19 34c15.4 27.4 38.4 43.2 63 43.2s47.6-15.8 63-43.2l19-34c4.2-7.4 12.4-9.4 18.6-7.4 7.2 2.2 12 9 11.4 16.6-6.6 84.2-64.4 142.8-112 142.8s-105.4-58.6-112-142.8c-0.6-7.4 4.2-14.4 11.4-16.6zM555.4 464.6c6.8-2.2 14.8 1 18.6 7.4l19 34c15.4 27.4 38.4 43.2 63 43.2s47.6-15.8 63-43.2l19-34c4.2-7.4 12.4-9.4 18.6-7.4 7.2 2.2 12 9 11.4 16.6-6.6 84.2-64.4 142.8-112 142.8s-105.4-58.6-112-142.8c-0.6-7.4 4.2-14.4 11.4-16.6zM742.2 318.4c-60.4-19.4-150.2-30.4-246.2-30.4s-185.8 11-246.2 30.4c-10.6 3.4-22.2 1-30.6-6.2-8.4-7.4-12.4-18.4-10.6-29.6 18.4-110 166.4-186.6 287.6-186.6s269 76.6 287.6 186.6c1.8 11-2.2 22.2-10.6 29.6-8.6 7.4-20.4 9.8-31 6.2zM496 160c-70 0-154 32.6-197 80.6 115-21.6 279.2-21.6 394.2 0-43.2-48-127.2-80.6-197.2-80.6zM496 944c-274 0-496-222-496-496s222-496 496-496 496 222 496 496-222 496-496 496zM496 16c-238.2 0-432 193.8-432 432s193.8 432 432 432 432-193.8 432-432-193.8-432-432-432z" />
<glyph unicode="&#xe940;" glyph-name="headset" d="M384 512c0 35.34-28.66 64-64 64h-64c-70.7 0-128-57.3-128-128v-127.28c0-70.7 57.3-128 128-128h64c35.34 0 64 28.66 64 64v255.28zM320 256.72h-64c-35.28 0-64 28.72-64 64v127.28c0 35.28 28.72 64 64 64h64v-255.28zM768 192.72c70.7 0 128 57.3 128 128v127.28c0 70.7-57.3 128-128 128h-64c-35.34 0-64-28.66-64-64v-255.28c0-35.34 28.66-64 64-64h64zM704 512h64c35.28 0 64-28.72 64-64v-127.28c0-35.28-28.72-64-64-64h-64v255.28zM512 960c-284.060 0-504.16-235.64-511.8-512l-0.2-48c0-8.84 7.16-16 16-16h32c8.84 0 16 7.16 16 16l0.18 48c6.68 241.62 199.080 448 447.82 448 247 0 448-200.96 448-448v-352c0-52.94-43.060-96-96-96h-165.88c3.58 10.060 5.88 20.72 5.88 32 0 53.020-42.98 96-96 96h-128c-53.020 0-96-42.98-96-96s42.98-96 96-96h384c88.24 0 160 71.78 160 160v352c0 282.3-229.68 512-512 512zM608 0h-128c-17.64 0-32 14.36-32 32s14.36 32 32 32h128c17.64 0 32-14.36 32-32s-14.36-32-32-32z" />
<glyph unicode="&#xe941;" glyph-name="history" d="M40 912h20c13.254 0 24-10.746 24-24v-189.25c86.392 147.156 246.478 245.82 429.586 245.248 272.774-0.854 494.84-224.016 494.414-496.79-0.428-273.57-222.332-495.208-496-495.208-127.852 0-244.404 48.374-332.356 127.816-10.226 9.236-10.708 25.122-0.964 34.866l14.138 14.138c9.006 9.006 23.498 9.428 32.964 0.908 75.782-68.204 176.088-109.728 286.218-109.728 235.488 0 428 190.662 428 428 0 235.488-190.662 428-428 428-165.724 0-309.474-94.154-380.578-232h196.578c13.254 0 24-10.746 24-24v-20c0-13.254-10.746-24-24-24h-288c-13.254 0-24 10.746-24 24v288c0 13.254 10.746 24 24 24zM683.294 281.53l9.412 12.94c7.796 10.72 5.426 25.73-5.294 33.526l-143.412 104.298v295.706c0 13.254-10.746 24-24 24h-16c-13.254 0-24-10.746-24-24v-328.294l169.768-123.468c10.72-7.798 25.73-5.428 33.526 5.292z" />
<glyph unicode="&#xe942;" glyph-name="home-alt" horiz-adv-x="1152" d="M1082 501.68l-465.7 380c-10.938 8.878-25.031 14.255-40.38 14.255s-29.442-5.376-40.499-14.349l0.119 0.094-465.54-380c-3.608-2.957-5.892-7.413-5.892-12.403 0-3.833 1.348-7.351 3.595-10.106l-0.023 0.029 20.2-24.82c2.957-3.606 7.412-5.889 12.401-5.889 3.798 0 7.286 1.323 10.030 3.533l-0.031-0.024 81.72 66.76v-486c0-17.673 14.327-32 32-32v0h256c17.673 0 32 14.327 32 32v0 256l128-0.6v-256.16c0-17.673 14.327-32 32-32v0l256 0.66c17.673 0 32 14.327 32 32v0 486.1l81.72-66.76c2.728-2.23 6.251-3.582 10.089-3.582 4.994 0 9.454 2.288 12.388 5.873l0.023 0.028 20.2 24.82c2.218 2.724 3.562 6.237 3.562 10.065 0 5.030-2.321 9.519-5.952 12.452l-0.030 0.024zM895.78 64.5h0.2l-192-0.6v256.34c-0.056 17.615-14.293 31.887-31.889 32h-0.011l-192 0.54c-0.030 0-0.065 0-0.1 0-17.673 0-32-14.327-32-32 0 0 0 0 0 0v0-256.28h-191.98v506.48l320 261.14 320-261.14z" />
<glyph unicode="&#xe943;" glyph-name="hourglass-half" horiz-adv-x="768" d="M736 896h8c13.254 0 24 10.746 24 24v16c0 13.254-10.746 24-24 24h-720c-13.254 0-24-10.746-24-24v-16c0-13.254 10.746-24 24-24h8c0-183.642 88.216-387.314 259.292-448-171.628-60.882-259.292-264.954-259.292-448h-8c-13.254 0-24-10.746-24-24v-16c0-13.254 10.746-24 24-24h720c13.254 0 24 10.746 24 24v16c0 13.254-10.746 24-24 24h-8c0 183.642-88.216 387.314-259.292 448 171.628 60.882 259.292 264.954 259.292 448zM96 896h576c0-220.914-128.942-400-288-400s-288 179.086-288 400zM672 0h-576c0 220.914 128.942 400 288 400s288-179.086 288-400zM539.32 666.176c-4.8-6.696-9.245-12.389-13.896-17.901l0.348 0.423c-4.602-5.476-11.342-8.696-18.496-8.696h-246.552c-7.152 0-13.894 3.22-18.496 8.696-4.3 5.087-8.745 10.779-12.972 16.639l-0.576 0.839c-11.314 15.82 0.176 37.824 19.626 37.824h271.388c19.45 0 30.938-22.006 19.626-37.824zM196.758 128h374.486c0 0 0.001 0 0.002 0 11.056 0 20.367-7.47 23.163-17.637l0.040-0.169c0.886-2.814 2.307-8.476 3.606-14.186l0.512-2.674c3.328-15.044-8-29.334-23.408-29.334h-382.314c-15.408 0-26.736 14.29-23.408 29.334 1.24 5.608 2.614 11.232 4.118 16.86 2.835 10.336 12.146 17.806 23.202 17.806 0.001 0 0.001 0 0.002 0v0z" />
<glyph unicode="&#xe944;" glyph-name="images" horiz-adv-x="1152" d="M1056 896h-832c-53.020 0-96-42.98-96-96v-32h-32c-53.020 0-96-42.98-96-96v-576c0-53.020 42.98-96 96-96h832c53.020 0 96 42.98 96 96v32h32c53.020 0 96 42.98 96 96v576c0 53.020-42.98 96-96 96zM960 96c0-17.644-14.356-32-32-32h-832c-17.644 0-32 14.356-32 32v576c0 17.644 14.356 32 32 32h32v-480c0-53.020 42.98-96 96-96h736v-32zM1088 224c0-17.644-14.356-32-32-32h-832c-17.644 0-32 14.356-32 32v576c0 17.644 14.356 32 32 32h832c17.644 0 32-14.356 32-32v-576zM352 560c61.856 0 112 50.144 112 112s-50.144 112-112 112-112-50.144-112-112 50.144-112 112-112zM352 720c26.468 0 48-21.532 48-48s-21.532-48-48-48-48 21.532-48 48 21.532 48 48 48zM833.942 673.942c-18.746 18.746-49.136 18.746-67.882 0l-190.060-190.060-62.058 62.060c-18.746 18.746-49.138 18.746-67.882 0l-176-176c-8.687-8.687-14.059-20.687-14.060-33.942v0-56c0-13.254 10.746-24 24-24h720c13.254 0 24 10.746 24 24v184c0 12.73-5.058 24.94-14.058 33.942l-176 176zM960 320h-640v9.372l160 160 96-96 224 224 160-160v-137.372z" />
<glyph unicode="&#xe945;" glyph-name="inbox-out" horiz-adv-x="1152" d="M1121.6 300.4l-189.2 177.4c-4.8 4.6-12.4 4.2-17-0.6l-27.2-29.2c-4.6-4.8-4.2-12.4 0.6-17l118.6-111.2h-231l-64-128h-272.8l-64 128h-230.8l118.6 111.2c4.8 4.6 5 12.2 0.6 17l-27.4 29.2c-4.6 4.8-12.2 5-17 0.6l-189.2-177.4c-19.4-18.2-30.4-43.4-30.4-70v-198.4c0-53 43-96 96-96h960c53 0 96 43 96 96v198.4c0 26.6-11 51.8-30.4 70zM1088 32c0-17.6-14.4-32-32-32h-960c-17.6 0-32 14.4-32 32v192c0 17.6 14.4 32 32 32h240l64-128h352l64 128h240c17.6 0 32-14.4 32-32v-192zM320 576h128v-208c0-26.4 21.6-48 48-48h160c26.4 0 48 21.6 48 48v208h128c56.8 0 85.6 69 45.2 109.2l-256 256c-25 25-65.6 25-90.6 0l-256-256c-40-40.2-11.6-109.2 45.4-109.2zM576 896l256-256h-192v-256h-128v256h-192l256 256z" />
<glyph unicode="&#xe946;" glyph-name="info-square" horiz-adv-x="896" d="M800 896h-704c-53.020 0-96-42.98-96-96v-704c0-53.020 42.98-96 96-96h704c53.020 0 96 42.98 96 96v704c0 53.020-42.98 96-96 96zM832 96c0-17.644-14.356-32-32-32h-704c-17.644 0-32 14.356-32 32v704c0 17.644 14.356 32 32 32h704c17.644 0 32-14.356 32-32v-704zM376 256h24v240h-24c-13.254 0-24 10.746-24 24v16c0 13.254 10.746 24 24 24h96c13.254 0 24-10.746 24-24v-280h24c13.254 0 24-10.746 24-24v-16c0-13.254-10.746-24-24-24h-144c-13.254 0-24 10.746-24 24v16c0 13.254 10.746 24 24 24zM448 736c-35.346 0-64-28.654-64-64s28.654-64 64-64 64 28.654 64 64-28.654 64-64 64z" />
<glyph unicode="&#xe947;" glyph-name="key" d="M672 896c159.058 0 288-128.942 288-288s-128.942-288-288-288c-37.936 0-74.152 7.35-107.322 20.678l-84.678-84.678h-96v-128h-128v-128h-192v160l340.678 340.678c-13.328 33.17-20.678 69.386-20.678 107.322 0 159.058 128.942 288 288 288zM672 960c-194.368 0-352-157.538-352-352 0-30.614 3.89-60.704 11.596-89.894l-317.538-317.538c-8.685-8.686-14.057-20.686-14.058-33.94v0-182.628c0-26.51 21.49-48 48-48h224c26.51 0 48 21.49 48 48v80h80c26.51 0 48 21.49 48 48v80h38.628c12.73 0 24.94 5.058 33.942 14.058l61.538 61.538c29.188-7.706 59.278-11.596 89.892-11.596 194.368 0 352 157.538 352 352 0 194.368-157.538 352-352 352zM768 744c22.056 0 40-17.944 40-40s-17.944-40-40-40-40 17.944-40 40 17.944 40 40 40zM768 800c-53.020 0-96-42.98-96-96s42.98-96 96-96 96 42.98 96 96-42.98 96-96 96z" />
<glyph unicode="&#xe948;" glyph-name="lightbulb" horiz-adv-x="704" d="M352 960c-205.9 0-352.24-167.080-352-352.48 0.12-88.56 33-169.34 87.12-231.080 51.3-58.5 100.58-153.8 104.88-184.44l0.12-150.36c0-6.3 1.88-12.44 5.36-17.68l49.020-73.68c5.94-8.92 15.94-14.28 26.64-14.28h157.7c10.72 0 20.72 5.36 26.64 14.28l49.020 73.68c3.48 5.24 5.34 11.4 5.36 17.68l0.14 150.36c4.52 31.44 53.98 126.38 104.88 184.44 54.22 61.86 87.12 142.82 87.12 231.56 0 194.4-157.6 352-352 352zM447.88 51.38l-34.18-51.38h-123.42l-34.18 51.38-0.020 12.62h191.8v-12.62zM447.96 128h-191.94l-0.14 64h192.16l-0.080-64zM568.76 418.64c-27.98-31.92-72.66-96.2-101.16-162.62h-231.18c-28.52 66.44-73.18 130.7-101.16 162.62-46.26 52.76-71 119.66-71.16 189.36-0.36 153.98 120.76 288 287.9 288 158.8 0 288-129.2 288-288 0-69.7-25.3-136.96-71.24-189.36zM352 832c-123.5 0-224-100.5-224-224 0-17.68 14.32-32 32-32s32 14.32 32 32c0 88.22 71.76 160 160 160 17.68 0 32 14.32 32 32s-14.32 32-32 32z" />
<glyph unicode="&#xe949;" glyph-name="link" d="M602.296 170.596l-158.4-158.38c-101.556-101.598-266.074-101.648-367.68 0-101.598 101.556-101.648 266.074 0 367.68l158.38 158.4c2.26 2.259 4.561 4.479 6.902 6.657l0.162 0.149c15.1 14.010 39.59 4.008 40.416-16.572 0.386-9.614 1.196-19.214 2.432-28.768 0.962-7.434-1.492-14.894-6.794-20.192-32.96-32.938-150.284-150.256-150.6-150.572-73.476-73.518-73.462-192.376 0-265.88 73.518-73.476 192.376-73.462 265.88 0l159.12 159.12c72.602 73.344 72.28 192.14-0.74 265.16-16.428 16.428-35.154 29.16-55.17 38.218-9.132 4.132-14.852 13.334-14.268 23.34 0.663 11.123 2.681 21.531 5.9 31.398l-0.248-0.88c4.206 13.202 19.062 19.922 31.838 14.56 30.146-12.648 58.374-31.24 82.87-55.736 101.376-101.378 101.358-266.34 0-367.702zM421.704 357.704c24.496-24.496 52.724-43.088 82.87-55.736 12.776-5.36 27.632 1.36 31.838 14.56 2.97 8.987 4.989 19.395 5.635 30.174l0.017 0.344c0.584 10.006-5.138 19.208-14.268 23.34-20.016 9.056-38.742 21.788-55.17 38.218-73.020 73.020-73.342 191.816-0.74 265.16l159.12 159.12c73.504 73.462 192.362 73.476 265.88 0 73.462-73.504 73.476-192.362 0-265.88-0.314-0.314-117.638-117.634-150.6-150.572-5.302-5.3-7.756-12.758-6.794-20.192 1.124-8.13 1.995-18.064 2.411-28.116l0.021-0.652c0.826-20.582 25.318-30.582 40.416-16.572 2.503 2.326 4.804 4.545 7.064 6.806l158.38 158.4c101.648 101.606 101.598 266.124 0 367.68-101.604 101.648-266.124 101.598-367.68 0l-158.4-158.38c-101.358-101.364-101.376-266.326 0-367.702z" />
<glyph unicode="&#xe94a;" glyph-name="list" d="M176 848h-96c-17.673 0-32-14.327-32-32v0-96c0-17.673 14.327-32 32-32v0h96c17.673 0 32 14.327 32 32v0 96c0 17.673-14.327 32-32 32v0zM176 528h-96c-17.673 0-32-14.327-32-32v0-96c0-17.673 14.327-32 32-32v0h96c17.673 0 32 14.327 32 32v0 96c0 17.673-14.327 32-32 32v0zM176 208h-96c-17.673 0-32-14.327-32-32v0-96c0-17.673 14.327-32 32-32v0h96c17.673 0 32 14.327 32 32v0 96c0 17.673-14.327 32-32 32v0zM1008 160h-672c-8.837 0-16-7.163-16-16v0-32c0-8.837 7.163-16 16-16v0h672c8.837 0 16 7.163 16 16v0 32c0 8.837-7.163 16-16 16v0zM1008 800h-672c-8.837 0-16-7.163-16-16v0-32c0-8.837 7.163-16 16-16v0h672c8.837 0 16 7.163 16 16v0 32c0 8.837-7.163 16-16 16v0zM1008 480h-672c-8.837 0-16-7.163-16-16v0-32c0-8.837 7.163-16 16-16v0h672c8.837 0 16 7.163 16 16v0 32c0 8.837-7.163 16-16 16v0z" />
<glyph unicode="&#xe94b;" glyph-name="lock-alt" horiz-adv-x="896" d="M448 120c-22 0-40 18-40 40v128c0 22 18 40 40 40s40-18 40-40v-128c0-22-18-40-40-40zM896 416v-384c0-53-43-96-96-96h-704c-53 0-96 43-96 96v384c0 53 43 96 96 96h32v128c0 176.8 144 320.6 321 320 176.8-0.6 319-146.2 319-323v-125h32c53 0 96-43 96-96zM192 512h512v128c0 141.2-114.8 256-256 256s-256-114.8-256-256v-128zM832 32v384c0 17.6-14.4 32-32 32h-704c-17.6 0-32-14.4-32-32v-384c0-17.6 14.4-32 32-32h704c17.6 0 32 14.4 32 32z" />
<glyph unicode="&#xe94c;" glyph-name="long-arrow-left" horiz-adv-x="896" d="M273.94 199.030l14.142 14.14c9.372 9.372 9.372 24.568 0 33.942l-167.856 166.888h751.774c13.254 0 24 10.746 24 24v20c0 13.254-10.746 24-24 24h-751.774l167.856 166.888c9.372 9.372 9.372 24.568 0 33.942l-14.142 14.14c-9.372 9.372-24.568 9.372-33.94 0l-232.97-232c-9.372-9.372-9.372-24.568 0-33.942l232.97-232c9.372-9.372 24.568-9.372 33.94 0.002z" />
<glyph unicode="&#xe94d;" glyph-name="long-arrow-right" horiz-adv-x="896" d="M622.060 696.97l-14.142-14.14c-9.372-9.372-9.372-24.568 0-33.942l167.856-166.888h-751.774c-13.254 0-24-10.746-24-24v-20c0-13.254 10.746-24 24-24h751.774l-167.856-166.888c-9.372-9.372-9.372-24.568 0-33.942l14.142-14.14c9.372-9.372 24.568-9.372 33.94 0l232.97 232c9.372 9.372 9.372 24.568 0 33.942l-232.97 231.998c-9.372 9.374-24.568 9.374-33.94 0z" />
<glyph unicode="&#xe94e;" glyph-name="mailbox" horiz-adv-x="1152" d="M864 832h-576c-159.058 0-288-128.942-288-288v0-416c0-35.346 28.654-64 64-64v0h1024c35.346 0 64 28.654 64 64v0 416c0 159.058-128.942 288-288 288v0zM512 128h-448v416c0 123.712 100.288 224 224 224s224-100.288 224-224v0zM1088 128h-512v416c0 91.040-43.080 171.22-109.020 224h397.020c123.657-0.137 223.863-100.343 224-223.987v-0.013zM992 576h-336c-8.837 0-16-7.163-16-16v0-32c0-8.837 7.163-16 16-16v0h176v-160c0-17.673 14.327-32 32-32v0h128c17.673 0 32 14.327 32 32v0 192c0 17.673-14.327 32-32 32v0zM960 384h-64v128h64zM368 576h-160c-8.837 0-16-7.163-16-16v0-32c0-8.837 7.163-16 16-16v0h160c8.837 0 16 7.163 16 16v0 32c0 8.837-7.163 16-16 16v0z" />
<glyph unicode="&#xe94f;" glyph-name="map-marked-alt" horiz-adv-x="1152" d="M1120 640c-4 0-8-0.8-12-2.4l-340-125.6-20.6 7.2c46.6 69.8 84.6 142.4 84.6 194.8 0 136-114.6 246-256 246s-256-110.2-256-246c0-23.6 8-51.6 20.8-81.2l-300.6-104.8c-24.2-9.6-40.2-33.2-40.2-59.4v-500.6c0-18.4 15-32 32-32 4 0 8 0.8 12 2.4l340 125.6 344-121.4c26-8.6 54-8.8 80-0.4l303.8 105.8c24.4 9.8 40.2 33.2 40.2 59.4v500.6c0 18.4-15 32-32 32zM352 120.4l-288.2-106.4-2.6 453.8 290.8 101zM576 896c105.8 0 192-81.6 192-182 0-54-76.2-177.8-192-313.6-115.8 135.8-192 259.6-192 313.6 0 100.4 86.2 182 192 182zM736 7.6l-320 113v381.8c48.8-70.6 104.2-136 135.4-171.4 6.4-7.4 15.6-11 24.6-11s18 3.6 24.6 11c25.6 29 67.4 78.2 108.6 133.8l26.8-9.4zM800 7.2v448.4l288.2 106.4 2.6-453.8zM624 704c0 26.6-21.6 48-48 48s-48-21.4-48-48c0-26.4 21.6-48 48-48s48 21.4 48 48z" />
<glyph unicode="&#xe950;" glyph-name="map-marker-alt" horiz-adv-x="768" d="M384 768c-105.87 0-192-86.13-192-192s86.13-192 192-192 192 86.13 192 192-86.13 192-192 192zM384 448c-70.58 0-128 57.42-128 128s57.42 128 128 128 128-57.42 128-128-57.42-128-128-128zM384 960c-212.078 0-384-171.922-384-384 0-154.826 53.94-198.062 344.536-619.34 19.068-27.544 59.858-27.548 78.93 0 290.594 421.278 344.534 464.514 344.534 619.34 0 212.078-171.922 384-384 384zM384 12.138c-278.59 402.886-320 434.874-320 563.862 0 85.476 33.286 165.834 93.726 226.274s140.798 93.726 226.274 93.726 165.834-33.286 226.274-93.726 93.726-140.798 93.726-226.274c0-128.98-41.384-160.94-320-563.862z" />
<glyph unicode="&#xe951;" glyph-name="map-signs" d="M882.74 576c16.98 0 33.24 8.42 45.26 23.44l86.62 108.28c12.5 15.62 12.5 40.94 0 56.58l-86.62 108.28c-12 15-28.28 23.42-45.26 23.42h-338.74v48c0 8.84-7.16 16-16 16h-32c-8.84 0-16-7.16-16-16v-48h-368c-26.5 0-48-26.86-48-60v-200c0-33.14 21.5-60 48-60h368v-64h-338.74c-16.98 0-33.26-8.42-45.26-23.42l-86.62-108.3c-12.5-15.62-12.5-40.94 0-56.58l86.62-108.26c12-15 28.28-23.44 45.26-23.44h338.74v-240c0-8.84 7.16-16 16-16h32c8.84 0 16 7.16 16 16v240h368c26.5 0 48 26.86 48 60v200c0 33.14-21.5 60-48 60h-368v64h338.74zM895.5 256h-750l-76.8 96 76.9 96h750.38l-0.48-192zM128.5 832h750l76.8-96-76.9-96h-750.38l0.48 192z" />
<glyph unicode="&#xe952;" glyph-name="pencil-alt" d="M986.51 847.528l-74.98 74.98c-49.986 49.986-131.030 49.988-181.020 0l-704.834-704.832-25.374-228.368c-3.396-30.572 22.44-56.406 53.008-53.008l228.368 25.374 704.834 704.834c49.984 49.988 49.984 131.034-0.002 181.020zM329.372 265.374c12.498-12.498 32.758-12.496 45.254 0l361.374 361.372 60.118-60.118-448.118-448.118v69.49h-96v96h-69.49l448.118 448.118 60.118-60.118-361.374-361.374c-12.498-12.496-12.498-32.756 0-45.252zM252.294 22.804l-117.99-13.11-60.61 60.61 13.11 117.99 39.706 39.706h69.49v-96h96v-69.49l-39.706-39.706zM941.254 711.764l-99.882-99.882-165.49 165.49 99.882 99.882c25.010 25.010 65.496 25.014 90.51 0l74.98-74.98c25.012-25.012 25.014-65.494 0-90.51z" />
<glyph unicode="&#xe953;" glyph-name="phone" d="M975.6 911.8l-201.6 46.6c-29.4 6.8-59.6-8.4-71.6-36.2l-93-217c-11-25.4-3.6-55.4 17.8-73l107.8-88.2c-68-138.4-180.6-251.2-319.2-319.2l-88.2 107.8c-17.6 21.4-47.6 28.8-73 17.8l-216.8-93c-27.8-12-43-42-36.2-71.4l46.4-201.4c6.6-28.6 31.8-48.6 61-48.6 504.4 0 915 408.4 915 915 0 29.2-20 54.4-48.4 60.8zM110.2 0l-46 199.2 214.8 92 119-145.6c207.2 97.2 319.4 209.8 416.2 416.2l-145.6 119 92 214.8 199.2-46c-0.4-469-380.6-849-849.6-849.6z" />
<glyph unicode="&#xe954;" glyph-name="phone-office" horiz-adv-x="1152" d="M704 320h-64c-35.32 0-64-28.72-64-64v-64c0-35.28 28.68-64 64-64h64c35.32 0 64 28.72 64 64v64c0 35.28-28.68 64-64 64zM704 192h-64v64h64v-64zM704 576h-64c-35.32 0-64-28.72-64-64v-64c0-35.28 28.68-64 64-64h64c35.32 0 64 28.72 64 64v64c0 35.28-28.68 64-64 64zM704 448h-64v64h64v-64zM960 320h-64c-35.32 0-64-28.72-64-64v-64c0-35.28 28.68-64 64-64h64c35.32 0 64 28.72 64 64v64c0 35.28-28.68 64-64 64zM960 192h-64v64h64v-64zM960 576h-64c-35.32 0-64-28.72-64-64v-64c0-35.28 28.68-64 64-64h64c35.32 0 64 28.72 64 64v64c0 35.28-28.68 64-64 64zM960 448h-64v64h64v-64zM1024 896h-549.88c-13.22 37.2-48.38 64-90.12 64h-128c-41.74 0-76.9-26.8-90.12-64h-37.88c-70.7 0-128-57.3-128-128v-704c0-70.7 57.3-128 128-128h896c70.7 0 128 57.3 128 128v704c0 70.7-57.3 128-128 128zM640 832h320v-128h-320v128zM224 864c0 17.64 14.36 32 32 32h128c17.64 0 32-14.36 32-32v-672c0-17.64-14.36-32-32-32h-128c-17.64 0-32 14.36-32 32v672zM1088 64c0-35.28-28.72-64-64-64h-896c-35.28 0-64 28.72-64 64v704c0 35.28 28.72 64 64 64h32v-640c0-53.020 42.98-96 96-96h128c53.020 0 96 42.98 96 96v640h96v-128c0-35.28 28.68-64 64-64h320c35.32 0 64 28.72 64 64v128c35.28 0 64-28.72 64-64v-704z" />
<glyph unicode="&#xe955;" glyph-name="phone-rotary" d="M512 480c-88.366 0-160-71.634-160-160s71.634-160 160-160c88.366 0 160 71.634 160 160v0c0 88.366-71.634 160-160 160v0zM512 224c-53.019 0-96 42.981-96 96s42.981 96 96 96c53.019 0 96-42.981 96-96v0c-0.057-52.996-43.004-95.943-95.995-96h-0.005zM740.86 575.5c-22.477 38.81-63.807 64.5-111.138 64.5-0.001 0-0.001 0-0.002 0h-235.44c0 0-0.001 0-0.002 0-47.331 0-88.662-25.69-110.81-63.886l-0.329-0.614-210.72-368.74c-5.295-9.115-8.42-20.058-8.42-31.731 0-0.010 0-0.020 0-0.031v0.002-111c0-35.346 28.654-64 64-64v0h768c35.346 0 64 28.654 64 64v0 111c0 0.009 0 0.019 0 0.029 0 11.673-3.125 22.616-8.584 32.039l0.164-0.307zM896 64h-768v111l210.72 368.76c11.26 19.378 31.908 32.208 55.555 32.24h235.445c23.652-0.032 44.3-12.862 55.396-31.934l0.164-0.306 210.72-368.76zM1000.54 723.6c-137.1 109.98-310.92 172.4-488.54 172.4s-351.44-62.42-488.54-172.4c-14.373-11.888-23.462-29.725-23.462-49.685 0-0.174 0.001-0.348 0.002-0.522v0.027-129.42c0-17.673 14.327-32 32-32v0h140.22c12.458 0.003 23.252 7.124 28.536 17.518l0.084 0.182 55.16 126.3c79.8 34.56 166.46 48 256 48s176.16-13.44 256-48l55.16-126.3c5.368-10.576 16.162-17.697 28.62-17.7h140.22c17.673 0 32 14.327 32 32v0 129.42c0.001 0.147 0.002 0.321 0.002 0.495 0 19.96-9.089 37.797-23.354 49.598l-0.108 0.087zM960 576h-87.22l-46.14 105.62-10 23.1-23.14 10c-82.84 35.86-174.9 53.28-281.5 53.28s-198.64-17.42-281.42-53.26l-23.14-10-10-23.1-46.22-105.64h-87.34l-0.36 97.68c121.648 98.263 278.059 157.887 448.384 158.32h0.096c170.321-0.319 326.622-60.076 449.331-159.626l-1.331 1.046z" />
<glyph unicode="&#xe956;" glyph-name="question" horiz-adv-x="768" d="M400.686 960c-152.622 0-261.164-63.198-344.296-186.604-28.426-42.198-18.916-99.348 21.65-130.108l84.068-63.744c41.418-31.406 100.692-24.33 133.358 17.020 42.946 54.362 56.742 63.92 92.264 63.92 20.436 0 50.578-13.998 50.578-36.484 0-51.462-218.6-41.488-218.6-244.502v-27.498c0-32.014 15.766-60.398 39.926-77.848-41.356-35.246-67.634-87.684-67.634-146.152 0-105.87 86.13-192 192-192s192 86.13 192 192c0 58.468-26.278 110.906-67.634 146.152 24.16 17.452 39.926 45.834 39.926 77.848v9.41c50.772 37.98 208.572 89.008 208.572 278.846 0 182.158-180.162 319.744-356.178 319.744zM384 0c-70.58 0-128 57.42-128 128s57.42 128 128 128 128-57.42 128-128-57.42-128-128-128zM484.292 372.812v-20.812c0-17.674-14.326-32-32-32h-136.584c-17.672 0-32 14.326-32 32v27.498c0 173.564 218.6 114.652 218.6 244.502 0 64-63.358 100.484-114.578 100.484-67.566 0-98.334-32.36-142.484-88.246-10.806-13.68-30.568-16.238-44.47-5.696l-84.068 63.744c-13.514 10.248-16.714 29.288-7.24 43.354 68.284 101.362 155.248 158.36 291.218 158.36 141.326 0 292.178-110.316 292.178-255.744 0-193.11-208.572-196.082-208.572-267.444z" />
<glyph unicode="&#xe957;" glyph-name="quote-left" d="M896 512h-128v48c0 61.8 50.2 112 112 112h32c44.2 0 80 35.8 80 80v64c0 44.2-35.8 80-80 80h-32c-185.2 0-336-150.8-336-336v-432c0-70.6 57.4-128 128-128h224c70.6 0 128 57.4 128 128v256c0 70.6-57.4 128-128 128zM960 128c0-35.4-28.6-64-64-64h-224c-35.4 0-64 28.6-64 64v432c0 150.2 121.8 272 272 272h32c8.8 0 16-7.2 16-16v-64c0-8.8-7.2-16-16-16h-32c-97.2 0-176-78.8-176-176v-112h192c35.4 0 64-28.6 64-64v-256zM352 512h-128v48c0 61.8 50.2 112 112 112h32c44.2 0 80 35.8 80 80v64c0 44.2-35.8 80-80 80h-32c-185.2 0-336-150.8-336-336v-432c0-70.6 57.4-128 128-128h224c70.6 0 128 57.4 128 128v256c0 70.6-57.4 128-128 128zM416 128c0-35.4-28.6-64-64-64h-224c-35.4 0-64 28.6-64 64v432c0 150.2 121.8 272 272 272h32c8.8 0 16-7.2 16-16v-64c0-8.8-7.2-16-16-16h-32c-97.2 0-176-78.8-176-176v-112h192c35.4 0 64-28.6 64-64v-256z" />
<glyph unicode="&#xe958;" glyph-name="quote-right" d="M352 896h-224c-70.6 0-128-57.4-128-128v-256c0-70.6 57.4-128 128-128h128v-48c0-61.8-50.2-112-112-112h-32c-44.2 0-80-35.8-80-80v-64c0-44.2 35.8-80 80-80h32c185.2 0 336 150.8 336 336v432c0 70.6-57.4 128-128 128zM416 336c0-150.2-121.8-272-272-272h-32c-8.8 0-16 7.2-16 16v64c0 8.8 7.2 16 16 16h32c97.2 0 176 78.8 176 176v112h-192c-35.4 0-64 28.6-64 64v256c0 35.4 28.6 64 64 64h224c35.4 0 64-28.6 64-64v-432zM896 896h-224c-70.6 0-128-57.4-128-128v-256c0-70.6 57.4-128 128-128h128v-48c0-61.8-50.2-112-112-112h-32c-44.2 0-80-35.8-80-80v-64c0-44.2 35.8-80 80-80h32c185.2 0 336 150.8 336 336v432c0 70.6-57.4 128-128 128zM960 336c0-150.2-121.8-272-272-272h-32c-8.8 0-16 7.2-16 16v64c0 8.8 7.2 16 16 16h32c97.2 0 176 78.8 176 176v112h-192c-35.4 0-64 28.6-64 64v256c0 35.4 28.6 64 64 64h224c35.4 0 64-28.6 64-64v-432z" />
<glyph unicode="&#xe959;" glyph-name="radio" d="M432 352h-288c-8.837 0-16-7.163-16-16v0-32c0-8.837 7.163-16 16-16v0h288c8.837 0 16 7.163 16 16v0 32c0 8.837-7.163 16-16 16v0zM400 224h-224c-8.837 0-16-7.163-16-16v0-32c0-8.837 7.163-16 16-16v0h224c8.837 0 16 7.163 16 16v0 32c0 8.837-7.163 16-16 16v0zM176 416h224c8.837 0 16 7.163 16 16v0 32c0 8.837-7.163 16-16 16v0h-224c-8.837 0-16-7.163-16-16v0-32c0-8.837 7.163-16 16-16v0zM896 704h-526.98l643.58 194c6.658 2.037 11.417 8.127 11.417 15.33 0 1.666-0.255 3.273-0.727 4.784l0.031-0.113-9.32 30.62c-2.042 6.649-8.129 11.399-15.324 11.399-1.668 0-3.277-0.255-4.789-0.729l0.113 0.031-846.88-255.32h-19.12c-70.692 0-128-57.308-128-128v0-512c0-70.692 57.308-128 128-128v0h768c70.692 0 128 57.308 128 128v0 512c0 70.692-57.308 128-128 128v0zM960 64c0-35.346-28.654-64-64-64v0h-768c-35.346 0-64 28.654-64 64v0 512c0 35.346 28.654 64 64 64v0h768c35.346 0 64-28.654 64-64v0zM704 512c-106.039 0-192-85.961-192-192s85.961-192 192-192c106.039 0 192 85.961 192 192v0c0 106.039-85.961 192-192 192v0zM704 192c-70.692 0-128 57.308-128 128s57.308 128 128 128c70.692 0 128-57.308 128-128v0c-0.080-70.66-57.34-127.92-127.993-128h-0.007z" />
<glyph unicode="&#xe95a;" glyph-name="search" d="M1017-3.2l-258 258c-4.6 4.6-10.6 7-17 7h-20.6c68.6 74.2 110.6 173.2 110.6 282.2 0 229.8-186.2 416-416 416s-416-186.2-416-416 186.2-416 416-416c109 0 208 42 282.2 110.4v-20.4c0-6.4 2.6-12.4 7-17l258-258c9.4-9.4 24.6-9.4 34 0l19.8 19.8c9.4 9.4 9.4 24.6 0 34zM416 192c-194.6 0-352 157.4-352 352s157.4 352 352 352 352-157.4 352-352-157.4-352-352-352z" />
<glyph unicode="&#xe95b;" glyph-name="search-minus" d="M615.6 512.4h-400c-13.2 0-24 10.8-24 24v16c0 13.2 10.8 24 24 24h400c13.2 0 24-10.8 24-24v-16c0-13.2-10.8-24-24-24zM1016.6-34l-22.6-22.6c-9.4-9.4-24.6-9.4-34 0l-258 258c-4.6 4.6-7 10.6-7 17v17c-73.8-66.8-171.6-107.4-279-107.4-228.4 0-413 182.2-416 410.6-3 234 187.4 424.4 421.4 421.4 228.4-3 410.6-187.6 410.6-416 0-107.4-40.6-205.2-107.4-279h17c6.4 0 12.4-2.6 17-7l258-258c9.4-9.4 9.4-24.6 0-34zM768 544c0 194.6-157.4 352-352 352s-352-157.4-352-352 157.4-352 352-352 352 157.4 352 352z" />
<glyph unicode="&#xe95c;" glyph-name="search-plus" d="M639.6 552v-16c0-13.2-10.8-24-24-24h-168v-168c0-13.2-10.8-24-24-24h-16c-13.2 0-24 10.8-24 24v168h-168c-13.2 0-24 10.8-24 24v16c0 13.2 10.8 24 24 24h168v168c0 13.2 10.8 24 24 24h16c13.2 0 24-10.8 24-24v-168h168c13.2 0 24-10.8 24-24zM1016.6-34l-22.6-22.6c-9.4-9.4-24.6-9.4-34 0l-258 258c-4.6 4.6-7 10.6-7 17v17c-73.8-66.8-171.6-107.4-279-107.4-228.4 0-413 182.2-416 410.6-3 234 187.4 424.4 421.4 421.4 228.4-3 410.6-187.6 410.6-416 0-107.4-40.6-205.2-107.4-279h17c6.4 0 12.4-2.6 17-7l258-258c9.4-9.4 9.4-24.6 0-34zM768 544c0 194.6-157.4 352-352 352s-352-157.4-352-352 157.4-352 352-352 352 157.4 352 352z" />
<glyph unicode="&#xe95d;" glyph-name="shield-alt" d="M933 792.6l-384 160c-10.902 4.648-23.586 7.35-36.9 7.35s-25.998-2.702-37.531-7.588l0.631 0.238-384-160c-35.8-14.8-59.2-49.8-59.2-88.6 0-397 229-671.4 443-760.6 23.6-9.8 50.2-9.8 73.8 0 171.4 71.4 443.2 318 443.2 760.6 0 38.8-23.4 73.8-59 88.6zM524.4 2.4c-8-3.2-16.8-3.2-24.6 0-195.8 77.6-403.8 349.6-403.8 701.6 0 13 7.8 24.6 19.6 29.6l384 160c7.8 3.2 16.8 3.2 24.6 0l384-160c12-5 19.8-16.6 19.6-29.6 0.2-352-207.8-624-403.4-701.6zM512 138v622l-285.4-119c20.2-240.2 154.2-430 285.4-503zM448 271.6c-72.8 79.8-131.6 195.6-152.2 329l152.2 63.4z" />
<glyph unicode="&#xe95e;" glyph-name="shield-check" d="M933 792.6l-384 160c-10.902 4.648-23.586 7.35-36.9 7.35s-25.998-2.702-37.531-7.588l0.631 0.238-384-160c-35.8-14.8-59.2-49.8-59.2-88.6 0-397 229-671.4 443-760.6 23.6-9.8 50.2-9.8 73.8 0 171.4 71.4 443.2 318 443.2 760.6 0 38.8-23.4 73.8-59 88.6zM524.4 2.4c-8-3.2-16.8-3.2-24.6 0-195.8 77.6-403.8 349.6-403.8 701.6 0 13 7.8 24.6 19.6 29.6l384 160c7.8 3.2 16.8 3.2 24.6 0l384-160c12-5 19.8-16.6 19.6-29.6 0.2-352-207.8-624-403.4-701.6zM796.8 652.4c-9.4 9.4-24.6 9.4-34 0.2l-326.8-324.2-138 139c-9.4 9.4-24.6 9.4-34 0.2l-17-17c-9.4-9.4-9.4-24.6-0.2-34l171.8-173.2c9.4-9.4 24.6-9.4 34-0.2l361 358c9.4 9.4 9.4 24.6 0.2 34z" />
<glyph unicode="&#xe95f;" glyph-name="shield-cross" horiz-adv-x="896" d="M840.86 792.62l-358.4 160c-11.020 4.92-22.74 7.38-34.46 7.38s-23.44-2.46-34.46-7.38l-358.4-160c-33.38-14.9-55.14-49.86-55.14-88.62 0-396.98 213.72-671.42 413.54-760.62 11.020-4.92 22.74-7.38 34.46-7.38s23.44 2.46 34.46 7.38c159.8 71.34 413.54 318.060 413.54 760.62 0 38.76-21.76 73.72-55.14 88.62zM64 704c0 13.44 6.92 25.58 17.24 30.18l270.76 120.88v-183.060h-286.94c-0.34 10.68-1.060 21.12-1.060 32zM352 54.6c-111.54 83.74-215.080 230.26-261.74 425.4h261.74v-425.4zM544 55.72v424.28h262.56c-49.84-210.36-164.32-348.92-262.56-424.28zM819.16 544h-339.16v-530.38c-8.18-4.44-16.14-8.46-23.62-11.8-3.14-1.4-9.38-3.28-16.74 0-7.84 3.5-15.74 7.76-23.62 11.92v530.26h-338.64c-2.874 16.027-5.807 37.928-7.985 60.051l-0.315 3.949h346.92v275.62l23.62 10.54c7.36 3.28 13.58 1.42 16.74 0l23.64-10.54v-275.62h347.080c-2.040-21.9-4.58-43.34-7.92-64zM830.84 672h-286.84v183.060l270.78-120.88c10.3-4.6 17.22-16.72 17.22-30.18 0-11-0.84-21.28-1.16-32z" />
<glyph unicode="&#xe960;" glyph-name="shipping-fast" horiz-adv-x="1280" d="M560 576c8.8 0 16 7.2 16 16v32c0 8.8-7.2 16-16 16h-480c-8.8 0-16-7.2-16-16v-32c0-8.8 7.2-16 16-16h480zM1264 192h-48v216.2c0 33.6-13.6 66.6-37.6 90.4l-167.8 167.8c-23.6 24-56.6 37.6-90.4 37.6h-88.2v98.8c0 51.4-44.4 93.2-98.8 93.2h-506.4c-54.4 0-98.8-41.8-98.8-93.2v-34.8h-112c-8.8 0-16-7.2-16-16v-32c0-8.8 7.2-16 16-16h480c8.8 0 16 7.2 16 16v32c0 8.8-7.2 16-16 16h-304v34.8c0 16.2 15.6 29.2 34.8 29.2h506.4c19.2 0 34.8-13 34.8-29.2v-610.8h-352.8c-29.2 38.6-75.2 64-127.2 64-36.2 0-69.2-12.4-96-32.8v160.8h-64v-288c0-88.4 71.6-160 160-160s160 71.6 160 160c0 11-1.2 21.6-3.2 32h390.4c-2.2-10.4-3.2-21-3.2-32 0-88.4 71.6-160 160-160s160 71.6 160 160c0 11-1.2 21.6-3.2 32h115.2c8.8 0 16 7.2 16 16v32c0 8.8-7.2 16-16 16zM288 0c-53 0-96 43-96 96s43 96 96 96 96-43 96-96-43-96-96-96zM832 640h88.2c16.8 0 33.4-6.8 45.2-18.8l167.8-167.8c1.6-1.6 2.2-3.8 3.6-5.6h-304.8v192.2zM992 0c-53 0-96 43-96 96s43 96 96 96 96-43 96-96-43-96-96-96zM1152 192h-32.8c-29.2 38.6-75.2 64-127.2 64s-98-25.4-127.2-64h-32.8v192h320v-192zM512 464v32c0 8.8-7.2 16-16 16h-480c-8.8 0-16-7.2-16-16v-32c0-8.8 7.2-16 16-16h480c8.8 0 16 7.2 16 16z" />
<glyph unicode="&#xe961;" glyph-name="shipping-timed" horiz-adv-x="1280" d="M416 768c-132.4 0-240-107.6-240-240s107.6-240 240-240 240 107.6 240 240-107.6 240-240 240zM416 352c-97 0-176 79-176 176s79 176 176 176 176-79 176-176-79-176-176-176zM496 512h-48v112c0 8.8-7.2 16-16 16h-32c-8.8 0-16-7.2-16-16v-160c0-8.8 7.2-16 16-16h96c8.8 0 16 7.2 16 16v32c0 8.8-7.2 16-16 16zM1264 192h-48v216.2c0 33.6-13.6 66.6-37.6 90.4l-167.8 167.8c-23.6 24-56.6 37.6-90.4 37.6h-88.2v98.8c0 51.4-44.4 93.2-98.8 93.2h-634.4c-54.4 0-98.8-41.8-98.8-93.2v-581.6c0-51.4 44.4-93.2 98.8-93.2h32.4c-2.2-10.4-3.2-21-3.2-32 0-88.4 71.6-160 160-160s160 71.6 160 160c0 11-1.2 21.6-3.2 32h390.4c-2.2-10.4-3.2-21-3.2-32 0-88.4 71.6-160 160-160s160 71.6 160 160c0 11-1.2 21.6-3.2 32h115.2c8.8 0 16 7.2 16 16v32c0 8.8-7.2 16-16 16zM288 0c-53 0-96 43-96 96s43 96 96 96 96-43 96-96-43-96-96-96zM768 192h-352.8c-29.2 38.6-75.2 64-127.2 64s-98-25.4-127.2-64h-62c-19.2 0-34.8 13-34.8 29.2v581.6c0 16.2 15.6 29.2 34.8 29.2h634.4c19.2 0 34.8-13 34.8-29.2v-610.8zM832 640h88.2c16.8 0 33.4-6.8 45.2-18.8l167.8-167.8c1.6-1.6 2.2-3.8 3.6-5.6h-304.8v192.2zM992 0c-53 0-96 43-96 96s43 96 96 96 96-43 96-96-43-96-96-96zM1152 192h-32.8c-29.2 38.6-75.2 64-127.2 64s-98-25.4-127.2-64h-32.8v192h320v-192z" />
<glyph unicode="&#xe962;" glyph-name="shopping-basket" horiz-adv-x="1152" d="M1128 576h-153.75l-278.464 309.406c-11.82 13.136-32.054 14.202-45.192 2.378s-14.202-32.056-2.378-45.192l239.934-266.592h-624.3l239.936 266.594c11.824 13.134 10.758 33.37-2.378 45.192-13.138 11.824-33.372 10.76-45.192-2.378l-278.466-309.408h-153.75c-13.254 0-24-10.746-24-24v-16c0-13.254 10.746-24 24-24h32.888l59.612-429.206c6.592-47.462 47.172-82.794 95.088-82.794h728.824c47.916 0 88.496 35.332 95.088 82.794l59.612 429.206h32.888c13.254 0 24 10.746 24 24v16c0 13.254-10.746 24-24 24zM972.108 91.598c-2.186-15.734-15.812-27.598-31.696-27.598h-728.824c-15.884 0-29.51 11.864-31.696 27.598l-58.388 420.402h908.994l-58.39-420.402zM608 400v-224c0-17.674-14.326-32-32-32-17.672 0-32 14.326-32 32v224c0 17.674 14.328 32 32 32 17.674 0 32-14.326 32-32zM832 400v-224c0-17.674-14.326-32-32-32s-32 14.326-32 32v224c0 17.674 14.326 32 32 32s32-14.326 32-32zM384 400v-224c0-17.674-14.328-32-32-32s-32 14.326-32 32v224c0 17.674 14.328 32 32 32s32-14.326 32-32z" />
<glyph unicode="&#xe963;" glyph-name="shopping-cart" horiz-adv-x="1152" d="M1103.982 832h-845.422l-16.658 88.846c-4.258 22.702-24.080 39.154-47.178 39.154h-170.724c-13.254 0-24-10.746-24-24v-16c0-13.254 10.746-24 24-24h157.44l139.854-745.892c-20.684-22.736-33.294-52.948-33.294-86.108 0-70.692 57.308-128 128-128s128 57.308 128 128c0 0.042 0 0.092 0 0.141 0 23.519-6.375 45.549-17.491 64.456l0.325-0.597h290.334c-10.791-18.31-17.166-40.34-17.166-63.859 0-0.050 0-0.099 0-0.149v0.008c0-70.692 57.308-128 128-128s128 57.308 128 128c0 35.986-14.87 68.48-38.776 91.736-5.182 20.482-23.706 36.264-46.57 36.264h-592.096l-24 128h662.762c22.736 0 42.354 15.952 46.992 38.21l86.662 416c6.208 29.808-16.546 57.79-46.994 57.79zM480 64c0-35.29-28.71-64-64-64s-64 28.71-64 64 28.71 64 64 64 64-28.71 64-64zM928 0c-35.29 0-64 28.71-64 64s28.71 64 64 64 64-28.71 64-64-28.71-64-64-64zM1004.312 384h-661.752l-72 384h813.752l-80-384z" />
<glyph unicode="&#xe964;" glyph-name="trash" horiz-adv-x="896" d="M880 832h-208l-67.2 89.6c-17.7 23.421-45.501 38.4-76.8 38.4v0h-160c-31.299 0-59.1-14.979-76.625-38.159l-0.175-0.241-67.2-89.6h-208c-8.837 0-16-7.163-16-16v0-32c0-8.837 7.163-16 16-16v0h37.8l66.4-744.6c4.555-49.183 45.614-87.392 95.599-87.4h464.401c49.986 0.008 91.045 38.217 95.572 87.021l0.028 0.379 66.4 744.6h37.8c8.837 0 16 7.163 16 16v0 32c0 8.837-7.163 16-16 16v0zM342.4 883.2c5.92 7.784 15.174 12.767 25.595 12.8h160.005c10.426-0.033 19.68-5.016 25.542-12.721l0.058-0.079 38.4-51.2h-288zM712 29.2c-1.396-16.41-15.060-29.2-31.712-29.2-0.031 0-0.062 0-0.093 0h-464.395c-0.026 0-0.057 0-0.088 0-16.652 0-30.316 12.79-31.704 29.083l-0.008 0.118-66 738.8h660z" />
<glyph unicode="&#xe965;" glyph-name="trash-alt" horiz-adv-x="896" d="M592 96h32c8.837 0 16 7.163 16 16v0 544c0 8.837-7.163 16-16 16v0h-32c-8.837 0-16-7.163-16-16v0-544c0-8.837 7.163-16 16-16v0zM272 96h32c8.837 0 16 7.163 16 16v0 544c0 8.837-7.163 16-16 16v0h-32c-8.837 0-16-7.163-16-16v0-544c0-8.837 7.163-16 16-16v0zM880 832h-208l-67.2 89.6c-17.7 23.421-45.501 38.4-76.8 38.4v0h-160c-31.299 0-59.1-14.979-76.625-38.159l-0.175-0.241-67.2-89.6h-208c-8.837 0-16-7.163-16-16v0-32c0-8.837 7.163-16 16-16v0h48v-736c0-53.019 42.981-96 96-96v0h576c53.019 0 96 42.981 96 96v0 736h48c8.837 0 16 7.163 16 16v0 32c0 8.837-7.163 16-16 16v0zM342.4 883.2c5.92 7.784 15.174 12.767 25.595 12.8h160.005c10.426-0.033 19.68-5.016 25.542-12.721l0.058-0.079 38.4-51.2h-288zM768 32c0-17.673-14.327-32-32-32v0h-576c-17.673 0-32 14.327-32 32v0 736h640zM432 96h32c8.837 0 16 7.163 16 16v0 544c0 8.837-7.163 16-16 16v0h-32c-8.837 0-16-7.163-16-16v0-544c0-8.837 7.163-16 16-16v0z" />
<glyph unicode="&#xe966;" glyph-name="truck" horiz-adv-x="1280" d="M1264 192h-48v216.2c0 33.6-13.6 66.6-37.6 90.4l-167.8 167.8c-23.6 24-56.6 37.6-90.4 37.6h-88.2v98.8c0 51.4-44.4 93.2-98.8 93.2h-634.4c-54.4 0-98.8-41.8-98.8-93.2v-581.6c0-51.4 44.4-93.2 98.8-93.2h32.4c-2.2-10.4-3.2-21-3.2-32 0-88.4 71.6-160 160-160s160 71.6 160 160c0 11-1.2 21.6-3.2 32h390.4c-2.2-10.4-3.2-21-3.2-32 0-88.4 71.6-160 160-160s160 71.6 160 160c0 11-1.2 21.6-3.2 32h115.2c8.8 0 16 7.2 16 16v32c0 8.8-7.2 16-16 16zM920.2 640c16.8 0 33.4-6.8 45.2-18.8l167.8-167.8c1.6-1.6 2.2-3.8 3.6-5.6h-304.8v192h88.2zM288 0c-53 0-96 43-96 96s43 96 96 96 96-43 96-96-43-96-96-96zM415.2 192c-29.2 38.6-75.2 64-127.2 64s-98-25.4-127.2-64h-62c-19.2 0-34.8 13-34.8 29.2v581.6c0 16.2 15.6 29.2 34.8 29.2h634.4c19.2 0 34.8-13 34.8-29.2v-610.8h-352.8zM992 0c-53 0-96 43-96 96s43 96 96 96 96-43 96-96-43-96-96-96zM992 256c-52.2 0-98-25.4-127.2-64h-32.8v192h320v-192h-32.8c-29.2 38.6-75 64-127.2 64z" />
<glyph unicode="&#xe967;" glyph-name="truck-container" horiz-adv-x="1280" d="M64 320h672c35.4 0 64 28.6 64 64v448c0 35.4-28.6 64-64 64h-672c-35.4 0-64-28.6-64-64v-448c0-35.4 28.6-64 64-64zM64 832h672v-448h-672v448zM1242.6 549.4l-117 117c-24 24-56.6 37.4-90.6 37.4h-139c-17.6 0-32-14.4-32-32v-416h-406.6c-24.6 19.8-55.4 32-89.4 32-45.6 0-85.6-21.6-112-54.6-26.4 33.2-66.4 54.8-112 54.8-79.6 0-144-64.4-144-144s64.4-144 144-144c45.6 0 85.6 21.6 112 54.6 26.4-33 66.4-54.6 112-54.6 79.6 0 144 64.4 144 144 0 17-3.4 33-8.8 48h396c-5.4-26.4-4.4-55.2 5.6-84.8 16.8-50.2 59.8-89.8 111.2-102.2 105.6-25.6 200 53.8 200 155.2 0 11-1.2 21.6-3.2 32h35.2c17.6 0 32 14.4 32 32v234.8c0 34-13.4 66.4-37.4 90.4zM144 64c-44.2 0-80 35.8-80 80s35.8 80 80 80 80-35.8 80-80-35.8-80-80-80zM368 64c-44.2 0-80 35.8-80 80s35.8 80 80 80 80-35.8 80-80-35.8-80-80-80zM928 640h107c17 0 33.2-6.6 45.2-18.8l109.2-109.2h-261.4v128zM1056 64c-53 0-96 43-96 96s43 96 96 96 96-43 96-96-43-96-96-96zM1216 256h-32.8c-29.2 38.6-75 64-127.2 64s-98-25.4-127.2-64h-0.8v192h288v-192zM208 448h32c8.8 0 16 7.2 16 16v288c0 8.8-7.2 16-16 16h-32c-8.8 0-16-7.2-16-16v-288c0-8.8 7.2-16 16-16zM400 448h32c8.8 0 16 7.2 16 16v288c0 8.8-7.2 16-16 16h-32c-8.8 0-16-7.2-16-16v-288c0-8.8 7.2-16 16-16zM592 448h32c8.8 0 16 7.2 16 16v288c0 8.8-7.2 16-16 16h-32c-8.8 0-16-7.2-16-16v-288c0-8.8 7.2-16 16-16z" />
<glyph unicode="&#xe968;" glyph-name="truck-moving" horiz-adv-x="1280" d="M1242.6 549.4l-117 117c-24 24-56.6 37.4-90.6 37.4h-107v128.2c0 35.4-28.6 64-64 64h-800c-35.4 0-64-28.6-64-64v-672c0-88.4 71.6-160 160-160 52.6 0 98.8 25.8 128 64.8 29.2-39.2 75.4-64.8 128-64.8 88.4 0 160 71.6 160 160 0 11-1.2 21.6-3.2 32h326.4c-2.2-10.4-3.2-21-3.2-32 0-88.4 71.6-160 160-160s160 71.6 160 160c0 11-1.2 21.6-3.2 32h35.2c17.6 0 32 14.4 32 32v235c0 34-13.4 66.4-37.4 90.4zM160 64c-53 0-96 43-96 96s43 96 96 96 96-43 96-96-43-96-96-96zM416 64c-53 0-96 43-96 96s43 96 96 96 96-43 96-96-43-96-96-96zM864 256h-320.8c-29.2 38.6-75 64-127.2 64s-98-25.4-127.2-64h-1.4c-29.4 38.6-75.4 64-127.4 64-36.2 0-69.2-12.4-96-32.8v544.8h800zM928 640h107c17 0 33.2-6.6 45.2-18.8l109.2-109.2h-261.4zM1056 64c-53 0-96 43-96 96s43 96 96 96 96-43 96-96-43-96-96-96zM1216 256h-32.8c-29.2 38.6-75 64-127.2 64s-98-25.4-127.2-64h-0.8v192h288z" />
<glyph unicode="&#xe969;" glyph-name="typewriter" d="M624 192h32c8.837 0 16 7.163 16 16v0 32c0 8.837-7.163 16-16 16v0h-32c-8.837 0-16-7.163-16-16v0-32c0-8.837 7.163-16 16-16v0zM752 192h32c8.837 0 16 7.163 16 16v0 32c0 8.837-7.163 16-16 16v0h-32c-8.837 0-16-7.163-16-16v0-32c0-8.837 7.163-16 16-16v0zM240 192h32c8.837 0 16 7.163 16 16v0 32c0 8.837-7.163 16-16 16v0h-32c-8.837 0-16-7.163-16-16v0-32c0-8.837 7.163-16 16-16v0zM960 576h-64v165.46c-0.008 17.689-7.175 33.702-18.761 45.301l-154.479 154.479c-11.581 11.588-27.583 18.757-45.259 18.76h-453.501c-53.019 0-96-42.981-96-96v0-288h-64c-35.346 0-64-28.654-64-64v0-128c0-35.346 28.654-64 64-64v0-256c0-70.692 57.308-128 128-128v0h640c70.692 0 128 57.308 128 128v0 256c35.346 0 64 28.654 64 64v0 128c0 35.346-28.654 64-64 64v0zM704 869.5l101.5-101.5h-101.5zM192 864c0 17.673 14.327 32 32 32v0h416v-128c0-35.346 28.654-64 64-64v0h128v-128h-101.5c-17.667-0.003-33.661-7.164-45.24-18.74l-26.52-26.52c-11.579-11.576-27.573-18.737-45.239-18.74h-203.001c-17.667 0.003-33.661 7.164-45.24 18.74l-26.52 26.52c-11.579 11.576-27.573 18.737-45.239 18.74h-101.501zM896 64c0-35.346-28.654-64-64-64v0h-640c-35.346 0-64 28.654-64 64v0 256h768zM960 384h-896v128h229.5l26.5-26.5c23.037-23.164 54.93-37.5 90.171-37.5 0.116 0 0.231 0 0.347 0h202.982c0.098 0 0.213 0 0.329 0 35.241 0 67.135 14.336 90.165 37.495l26.506 26.506h229.5zM288 80c0-8.837 7.163-16 16-16v0h416c8.837 0 16 7.163 16 16v0 32c0 8.837-7.163 16-16 16v0h-416c-8.837 0-16-7.163-16-16v0zM368 192h32c8.837 0 16 7.163 16 16v0 32c0 8.837-7.163 16-16 16v0h-32c-8.837 0-16-7.163-16-16v0-32c0-8.837 7.163-16 16-16v0zM496 192h32c8.837 0 16 7.163 16 16v0 32c0 8.837-7.163 16-16 16v0h-32c-8.837 0-16-7.163-16-16v0-32c0-8.837 7.163-16 16-16v0z" />
<glyph unicode="&#xe96a;" glyph-name="umbrella" horiz-adv-x="1152" d="M1150.4 452.4c-58.6 246-289.4 398.6-542.4 410.8v64.8c0 17.6-14.4 32-32 32s-32-14.4-32-32v-64.8c-252-12-482.2-163-542.4-410.6-12-47.8 45.6-88.2 88.2-50.2 99 92.2 179.8 55.4 250.8-55.4 22.8-35.6 69.6-33.8 91.2 0 30.4 47 62.4 90 112.4 103v-386.2c0-35.4-28.6-64-64-64-27.2 0-51.4 17.2-60.4 42.6-6 16.6-24.2 25.4-40.8 19.6s-25.4-24.2-19.4-40.8c18-51 66.6-85.4 120.8-85.4 70.6 0 128 57.4 128 128v385.8c60.2-16.6 89.2-66.6 112.4-102.4 21.6-34 68.6-35.4 91.2 0 72.4 111.8 153.2 146 250.8 55.4 41.8-37.8 99.4 2 87.6 49.8zM766.6 395c-48.6 79.4-115.8 123-190.6 123-89 0-143.2-54-189.4-123-83.2 135.6-215 155-312.2 78.6 69.8 209 283.2 326.4 501.6 326.4 218.6 0 434-118.6 502.4-327.4-116.6 87.8-228.2 43.8-311.8-77.6z" />
<glyph unicode="&#xe96b;" glyph-name="unlock" horiz-adv-x="768" d="M672 448h-480v192c0 141.2 50.8 256 192 256s192-114.8 192-256v-40c0-13.2 10.8-24 24-24h16c13.2 0 24 10.8 24 24v37c0 176.8-78.2 322.4-255 323-177 0.6-257-143.2-257-320v-192h-32c-53 0-96-43-96-96v-320c0-53 43-96 96-96h576c53 0 96 43 96 96v320c0 53-43 96-96 96zM704 32c0-17.6-14.4-32-32-32h-576c-17.6 0-32 14.4-32 32v320c0 17.6 14.4 32 32 32h576c17.6 0 32-14.4 32-32v-320z" />
<glyph unicode="&#xe96c;" glyph-name="unlock-alt" horiz-adv-x="768" d="M672 448h-480v192c0 141.2 50.8 256 192 256s192-114.8 192-256v-40c0-13.2 10.8-24 24-24h16c13.2 0 24 10.8 24 24v37c0 176.8-78.2 322.4-255 323-177 0.6-257-143.2-257-320v-192h-32c-53 0-96-43-96-96v-320c0-53 43-96 96-96h576c53 0 96 43 96 96v320c0 53-43 96-96 96zM704 32c0-17.6-14.4-32-32-32h-576c-17.6 0-32 14.4-32 32v320c0 17.6 14.4 32 32 32h576c17.6 0 32-14.4 32-32v-320zM384 96c-17.6 0-32 14.4-32 32v128c0 17.6 14.4 32 32 32s32-14.4 32-32v-128c0-17.6-14.4-32-32-32z" />
<glyph unicode="&#xe96d;" glyph-name="user" horiz-adv-x="896" d="M627.2 384c-57.4 0-85-32-179.2-32s-121.6 32-179.2 32c-148.4 0-268.8-120.4-268.8-268.8v-83.2c0-53 43-96 96-96h704c53 0 96 43 96 96v83.2c0 148.4-120.4 268.8-268.8 268.8zM832 32c0-17.6-14.4-32-32-32h-704c-17.6 0-32 14.4-32 32v83.2c0 113 91.8 204.8 204.8 204.8 39.2 0 78.2-32 179.2-32 100.8 0 140 32 179.2 32 113 0 204.8-91.8 204.8-204.8v-83.2zM448 448c141.4 0 256 114.6 256 256s-114.6 256-256 256-256-114.6-256-256 114.6-256 256-256zM448 896c105.8 0 192-86.2 192-192s-86.2-192-192-192-192 86.2-192 192 86.2 192 192 192z" />
<glyph unicode="&#xe96e;" glyph-name="user-alt" d="M512 896c123.6 0 224-100.4 224-224s-100.4-224-224-224-224 100.4-224 224 100.4 224 224 224zM768 256c105.8 0 192-86.2 192-192v-64h-896v64c0 105.8 86.2 192 192 192 170 0 134.6-32 256-32 121.8 0 85.8 32 256 32zM512 960c-159 0-288-129-288-288s129-288 288-288 288 129 288 288-129 288-288 288zM768 320c-184.8 0-142-32-256-32-113.6 0-71.4 32-256 32-141.4 0-256-114.6-256-256v-64c0-35.4 28.6-64 64-64h896c35.4 0 64 28.6 64 64v64c0 141.4-114.6 256-256 256z" />
<glyph unicode="&#xe96f;" glyph-name="user-check" horiz-adv-x="1280" d="M1275.4 670.8l-28.2 28.4c-6.2 6.2-16.4 6.4-22.6 0l-230.4-223.4-106.6 106.8c-6.2 6.2-16.4 6.2-22.6 0l-28.4-28.2c-6.2-6.2-6.2-16.4 0-22.6l140.4-140.8c9.4-9.4 24.6-9.4 34 0l264.2 257.2c6.4 6.2 6.4 16.4 0.2 22.6zM627.2 384c-57.4 0-85-32-179.2-32s-121.6 32-179.2 32c-148.4 0-268.8-120.4-268.8-268.8v-83.2c0-53 43-96 96-96h704c53 0 96 43 96 96v83.2c0 148.4-120.4 268.8-268.8 268.8zM832 32c0-17.6-14.4-32-32-32h-704c-17.6 0-32 14.4-32 32v83.2c0 113 91.8 204.8 204.8 204.8 39.2 0 78.2-32 179.2-32 100.8 0 140 32 179.2 32 113 0 204.8-91.8 204.8-204.8v-83.2zM448 448c141.4 0 256 114.6 256 256s-114.6 256-256 256-256-114.6-256-256 114.6-256 256-256zM448 896c105.8 0 192-86.2 192-192s-86.2-192-192-192-192 86.2-192 192 86.2 192 192 192z" />
<glyph unicode="&#xe970;" glyph-name="user-cog" horiz-adv-x="1280" d="M1256.6 243.4l-33 19c1.6 17 1.6 34.2 0 51.2l33.2 19c19 11 27.6 33.4 21 54-14.4 46.8-39.8 90.8-73.4 127-14.8 16.2-38.6 19.8-57.4 8.8l-33-19c-14 10-28.8 18.6-44.4 25.6v38c0 22-15 40.6-36.4 45.4-47.8 10.8-98.6 10.8-146.4 0-21.4-4.8-36.4-23.6-36.4-45.4v-38c-15.6-7-30.4-15.6-44.4-25.6l-33 19c-19 11-42.6 7.4-57.4-8.8-33.4-36.2-58.8-80.2-73.4-126.8-6.6-20.8 2.4-43.6 21.2-54.4l33-19c-1.6-17-1.6-34.2 0-51.2l-33.2-19c-18.6-10.8-27.6-33.8-21-54.2 14.4-46.8 39.8-90.8 73.4-127 14.8-16 38.4-19.6 57.4-8.8l33 19c14-10 28.8-18.6 44.4-25.6v-38c0-22 15-40.6 36.4-45.4 24-5.4 48.6-8 73.2-8s49.4 2.6 73.2 8c21.4 4.8 36.4 23.6 36.4 45.4v38c15.6 7 30.4 15.6 44.4 25.6l33-19c18.8-10.8 42.6-7.2 57.4 8.8 33.4 36.2 58.8 80.2 73.4 126.8 6.6 20.8-2.4 43.8-21.2 54.6zM1153.4 229l58.8-34c-10.4-28.6-26-55.6-45.6-79l-58.8 34c-42.8-36.6-49-40.2-102.2-59v-68c-30.2-5.2-61.2-5.2-91.2 0v68c-53.8 19-60.4 23.4-102.2 59l-58.8-34c-19.6 23.6-35.2 50.4-45.6 79l58.8 34c-9.8 53.6-10.4 61.2 0 118l-58.8 34c10.4 28.6 26 55.4 45.6 79l58.8-34c42.8 36.6 49 40.2 102.2 59v68c30.2 5 61.4 5 91.2 0v-68c53.6-19 60.4-23.2 102.2-59l58.8 34c19.6-23.6 35.2-50.4 45.6-79l-58.8-34c9.8-53.6 10.4-61.2 0-118zM960 417c-71.2 0-129-58-129-129s57.8-129 129-129 129 58 129 129-57.8 129-129 129zM960 223c-35.8 0-65 29.2-65 65s29.2 65 65 65 65-29.2 65-65-29.2-65-65-65zM448 448c141.4 0 256 114.6 256 256s-114.6 256-256 256-256-114.6-256-256 114.6-256 256-256zM448 896c105.8 0 192-86.2 192-192s-86.2-192-192-192-192 86.2-192 192 86.2 192 192 192zM96 0c-17.6 0-32 14.4-32 32v83.2c0 113 91.8 204.8 204.8 204.8 39.2 0 78.2-32 179.2-32 38.4 0 76 6.6 113 17.4 1 23.2 3.6 46 8.4 68-17.8-5.4-60.2-21.4-121.4-21.4-94.2 0-121.6 32-179.2 32-148.4 0-268.8-120.4-268.8-268.8v-83.2c0-53 43-96 96-96h674c-32 17.2-61.2 39-87 64h-587z" />
<glyph unicode="&#xe971;" glyph-name="user-edit" horiz-adv-x="1280" d="M448 448c141.4 0 256 114.6 256 256s-114.6 256-256 256-256-114.6-256-256 114.6-256 256-256zM448 896c105.8 0 192-86.2 192-192s-86.2-192-192-192-192 86.2-192 192 86.2 192 192 192zM1261.2 487.8l-69.4 69.4c-12.6 12.6-29 18.8-45.6 18.8-16.4 0-33-6.2-45.6-18.8l-445-445.2-15.2-136.4c-2.4-21.4 14.4-39.6 35.4-39.6 1.4 0 2.6 0 4 0.2l136.4 15.2 445 445c25 25.4 25 66.2 0 91.4zM786.6 12.6l-78.8-9 8.8 79 313.8 313.8 70-70-313.8-313.8zM1145.6 371.6l-70 70 70.4 70.4h0.2l0.4-0.2 69.4-70-70.4-70.2zM268.8 320c39.2 0 78.2-32 179.2-32 100.8 0 140 32 179.2 32 41.4 0 79.8-12.6 112-33.8l45.6 45.6c-44.4 32.4-98.6 52-157.6 52-57.4 0-85-32-179.2-32s-121.6 32-179.2 32c-148.4 0.2-268.8-120.2-268.8-268.6v-83.2c0-53 43-96 96-96h487c-5.6 14.8-8.2 30.8-6.4 46.8l2 17.2h-482.6c-17.6 0-32 14.4-32 32v83.2c0 113 91.8 204.8 204.8 204.8z" />
<glyph unicode="&#xe972;" glyph-name="bookmark" horiz-adv-x="768" d="M672 960h-576c-53.020 0-96-42.98-96-96v-928l384 224 384-224v928c0 53.020-42.98 96-96 96zM704 47.426l-320 186.666-320-186.666v816.574c0 17.644 14.356 32 32 32h576c17.644 0 32-14.356 32-32v-816.574z" />
<glyph unicode="&#xe973;" glyph-name="box-check" horiz-adv-x="1280" d="M985 693.2l-67.2 201.2c-13 39.2-49.6 65.6-91 65.6h-629.6c-41.4 0-78-26.4-91-65.6l-101.2-303.6c-3.2-9.8-5-20-5-30.4v-528.4c0-53 43-96 96-96h800c212 0 384 172 384 384 0 181.4-126 333-295 373.2zM544 896h282.8c13.8 0 26-8.8 30.4-21.8l57-171c-6 0.2-12 1-18.2 1-113.6 0-215.4-49.6-285.6-128h-66.4v319.8zM166.8 874.2c4.4 13 16.6 21.8 30.4 21.8h282.8v-320h-412.6l99.4 298.2zM96 0c-17.6 0-32 14.4-32 32v480h499.8c-32.8-56.6-51.8-122-51.8-192 0-133.6 68.4-251.2 172-320h-588zM896 0c-176.4 0-320 143.6-320 320s143.6 320 320 320 320-143.6 320-320-143.6-320-320-320zM1025.2 443.4c-6.2 6.2-16.2 6.2-22.4 0l-139.8-138.6-60.6 61.2c-6.2 6.2-16.2 6.2-22.4 0l-37.4-37.2c-6.2-6.2-6.2-16.2 0-22.4l108.8-109.8c6.2-6.2 16.2-6.2 22.4 0l188.4 187c6.2 6.2 6.2 16.2 0 22.4l-37 37.4z" />
<glyph unicode="&#xe974;" glyph-name="calendar-check" horiz-adv-x="896" d="M800 832h-96v104c0 13.254-10.746 24-24 24h-16c-13.254 0-24-10.746-24-24v-104h-384v104c0 13.254-10.746 24-24 24h-16c-13.254 0-24-10.746-24-24v-104h-96c-53.020 0-96-42.98-96-96v-704c0-53.020 42.98-96 96-96h704c53.020 0 96 42.98 96 96v704c0 53.020-42.98 96-96 96zM96 768h704c17.644 0 32-14.356 32-32v-96h-768v96c0 17.644 14.356 32 32 32zM800 0h-704c-17.644 0-32 14.356-32 32v544h768v-544c0-17.644-14.356-32-32-32zM667.066 389.874l-269.582-267.42c-9.4-9.326-24.576-9.284-33.926 0.092l-134.716 135.104c-9.366 9.394-9.344 24.602 0.048 33.97l17.010 16.96c9.394 9.366 24.602 9.344 33.968-0.048l100.884-101.174 235.564 233.674c9.418 9.342 24.626 9.282 33.97-0.136l16.916-17.054c9.344-9.418 9.282-24.626-0.136-33.968z" />
<glyph unicode="&#xe975;" glyph-name="heart" d="M924.6 834.6c-109 92.8-272 77.4-373.2-27l-39.4-40.8-39.4 40.6c-81.6 84.4-246.2 135.2-373.2 27.2-125.6-107.2-132.2-299.6-19.8-415.6l387-399.6c12.4-12.8 28.8-19.4 45.2-19.4s32.8 6.4 45.2 19.4l387 399.6c112.8 116 106.2 308.4-19.4 415.6zM898.4 463.4l-385.6-399.6-387.2 399.6c-76.8 79.2-92.8 230.2 15.4 322.4 109.6 93.6 238.4 25.8 285.6-23l85.4-88.2 85.4 88.2c46.4 48 176.4 116 285.6 23 108-92 92.2-243 15.4-322.4z" />
<glyph unicode="&#xe976;" glyph-name="recycle" d="M403.456 835.902l-86.77-138.918c-7.022-11.244-21.832-14.664-33.074-7.638l-13.562 8.474c-11.238 7.022-14.658 21.824-7.638 33.066l86.774 138.96c75.15 120.24 250.526 120.168 325.632 0l92.434-148.030 24.074 104.28c2.982 12.916 15.868 20.968 28.784 17.986l15.588-3.598c12.916-2.982 20.968-15.868 17.986-28.784l-43.266-187.404c-2.982-12.916-15.868-20.968-28.784-17.986l-187.404 43.266c-12.916 2.982-20.968 15.868-17.986 28.784l3.598 15.588c2.982 12.916 15.868 20.968 28.784 17.986l104.404-24.104-92.502 148.094c-50.004 80.012-166.934 80.198-217.072-0.022zM994.576 357.76l-105.878 169.56c-7.022 11.246-21.832 14.668-33.076 7.642l-13.534-8.456c-11.24-7.024-14.658-21.826-7.638-33.068l105.932-169.596c53.21-85.136-8.108-195.84-108.544-195.84h-210.584l75.716 75.716c9.372 9.372 9.372 24.568 0 33.94l-11.312 11.312c-9.372 9.372-24.568 9.372-33.94 0l-136-136c-9.372-9.372-9.372-24.568 0-33.942l136-136c9.372-9.372 24.568-9.372 33.94 0l11.312 11.314c9.372 9.372 9.372 24.568 0 33.942l-75.716 75.716h210.506c150.548 0 242.67 165.994 162.816 293.76zM83.626 323.862l111.606 178.678 24.088-104.332c2.982-12.916 15.868-20.968 28.784-17.986l15.588 3.598c12.916 2.982 20.968 15.868 17.986 28.784l-43.266 187.404c-2.982 12.916-15.868 20.968-28.784 17.986l-187.404-43.266c-12.916-2.982-20.968-15.868-17.986-28.784l3.598-15.588c2.982-12.916 15.868-20.968 28.784-17.986l104.386 24.1-111.592-178.71c-79.79-127.664 12.148-293.76 162.816-293.76h199.77c13.254 0 24 10.746 24 24v16c0 13.254-10.746 24-24 24h-199.844c-100.398 0-161.774 110.67-108.53 195.862z" />
<glyph unicode="&#xe977;" glyph-name="star" horiz-adv-x="1152" d="M1056.2 617l-292.2 42.6-130.6 264.8c-23.4 47.2-91.2 47.8-114.8 0l-130.6-264.8-292.2-42.6c-52.4-7.6-73.4-72.2-35.4-109.2l211.4-206-50-291c-9-52.6 46.4-92 92.8-67.4l261.4 137.4 261.4-137.4c46.4-24.4 101.8 14.8 92.8 67.4l-50 291 211.4 206c38 37 17 101.6-35.4 109.2zM811.6 324.2l55.6-324-291.2 152.8-291-153 55.6 324-235.6 229.8 325.4 47.2 145.6 295 145.6-295 325.4-47.2-235.4-229.6z" />
</font>
</defs>
</svg>
