<svg version="1.1" class="svg-areas hen-areas" id="Layer_1" xmlns="http://www.w3.org/2000/svg" xmlns:xlink="http://www.w3.org/1999/xlink" x="0px" y="0px" viewBox="0 0 800 800" style="enable-background: new 0 0 800 800;" xml:space="preserve">
                            <g>
                                <g>
                                    <g>
                                        <path id="3" class="st5" d="M443.7,506.6c1.1-3,2.4-5.8,3.3-8.8c1.2-3.5,2.1-7,2.8-10.6c0.1-0.7,0.1-1.4,0.1-2.1
				c0.1-4.6,0.1-9.1-0.5-13.7c-0.7-5.6-1.3-11.2-2.2-16.8c-1.4-8.8-3.2-17.4-5.7-25.9c-2.3-7.8-5.1-15.5-9.7-22.3
				c-1.4-2.1-3-4.1-5.1-5.6c-1.1-0.8-1.1-1,0-1.9c2.7-2.3,5.3-4.8,7.8-7.4c3.6-3.7,6.4-7.9,8.3-12.7c1.2-2.8,1.7-5.9,1.9-9
				c0.1-3.6-0.1-7.2-1.2-10.6c-1.2-3.7-3.3-6.8-5.8-9.7c-3.1-3.4-6.7-6.2-10.8-8.3c-0.3-0.2-0.6-0.2-0.8-0.8
				c1.4-0.5,2.8-1.1,4.2-1.6c5.5-2,10.9-4.3,16.2-6.9c5.1-2.5,9.9-4.2,14.3-7.9c2-1.7,4-4.6,5.1-7c0.4-0.8,0.9-1.2,1.8-0.9
				c4,1.3,8.1,1.9,12.2,2.9c4.8,1.1,9.5,2.5,14.2,3.6c9.9,2.4,19.8,4.5,29.7,7c1.3,0.3,2,0.8,2.4,2.2c2.1,8.9,4.3,17.8,5.7,26.9
				c0.7,4.4,1.2,8.8,1.6,13.2c0.6,5.8,0.9,11.6,0.7,17.4c-0.1,4.3-0.5,8.6-1,12.8c-0.6,5.3-1.7,10.5-3,15.7
				c-1.3,5.1-3.3,10-5.5,14.9c-4.2,9.2-9.4,17.9-15.5,26c-2.5,3.2-5.1,6.3-7.8,9.3c-1.9,2-3.7,4.1-5.7,5.9
				c-8,7.6-16.5,14.4-25.9,20.2c-7.8,4.9-16,9.1-24.6,12.4C444.8,506.6,444.4,506.9,443.7,506.6z"></path>
                                        <path id="6" class="st5" d="M349.9,504.9c-1.6-0.3-2.7-1.5-3.9-2.4c-7.3-5.2-14.5-10.7-21.4-16.5c-4.4-3.7-8.7-7.5-12.9-11.4
				c-3.6-3.3-7-6.9-10.3-10.5c-5-5.5-9.3-11.4-12.8-18c-4.5-8.4-8.8-16.8-13-25.3c-3-6.1-5.9-12.2-8.2-18.6c0-0.1-0.1-0.2-0.2-0.4
				c-0.3-0.8-0.6-1.7,0.1-2.4c0.7-0.6,1.5-0.1,2.2,0.2c2.2,0.7,8.7,4.3,10.7,5.4c7.2,4,9.7,5.7,17.2,9.3c5.1,2.4,10.4,4.1,15.8,5.8
				c5.2,1.6,10.4,3,15.7,4.2c4.4,1,8.9,2.2,13.4,2.5c5,0.3,10,0.3,15.1-0.2c9.7-0.9,19.1-3.4,28.3-6.7c4.8-1.7,9.5-3.7,14.1-5.8
				c6.3-2.8,12.2-6.3,18.3-9.4c2.2-1.1,1.6-1.4,3.8,0.6c4.5,4.3,7.5,9.5,10,15.1c4.6,10.4,7.2,21.3,9.3,32.4
				c0.6,3.4,1.3,6.8,1.5,10.2c-0.2,0.3-0.5,0.1-0.7,0c-6.5-5.8-14.2-9.3-22.7-11.4c-5.8-1.4-11.7-2.5-17.7-3.3
				c-5.8-0.7-11.5-1.3-17.4-1.1c-6.6,0.3-13.1,1.1-19.4,3.4c-6.4,2.3-11.8,6-15.7,11.6c-3.7,5.3-6.1,11.2-6.5,17.8
				c-0.6,8.6,2,16.2,6.3,23.3C349.4,503.8,349.9,504.2,349.9,504.9L349.9,504.9z"></path>
                                        <path id="7" class="st5" d="M386.5,453.5c7.2-0.1,13.7,0.7,20.1,1.9c8,1.5,15.7,3.7,23,7.4c3.3,1.7,6.3,3.8,9,6.6
				c2.8,2.9,4.1,6.3,4.3,10.2c0.4,7.6-1.4,14.9-4,22c-1.2,3.2-2.5,6.3-4.1,9.3c-2.6,4.9-6.3,8.9-10.5,12.5c-1.7,1.5-3.5,2.8-5.5,3.7
				c-3.9,1.9-8,2.9-12.4,3c-7.6,0-14.8-1.9-21.9-4.4c-4.1-1.4-8.1-3.3-11.8-5.7c-7.3-5-13.1-11.5-17.7-19.1
				c-2.1-3.6-3.7-7.5-4.5-11.6c-1.9-8.7-0.3-16.7,5.5-23.7c5.3-6.3,11.9-10.2,20.1-11.3C379.8,453.7,383.5,453.4,386.5,453.5z"></path>
                                        <path id="5" class="st5" d="M402.2,406.2c-0.2,0.6-0.8,0.7-1.2,0.9c-8.7,3.9-16.2,6.5-25.3,9.4c-7.2,2.5-27.6,6.1-58.8-2.3
				c-11-2.9-13.4-4.9-16.5-6.2c-6.9-2.8-13.5-6.2-20.1-9.8c-3.5-1.9-7-3.8-10.3-6.1c-1.6-1.1-3.2-2.2-4.6-3.7
				c-1.3-1.4-1.8-3-0.5-5.1c2.3-3.8,5.3-7,8.6-9.8c6.9-6,14.7-10.6,22.6-15c4.7-2.6,9.8-4.3,14.9-5.8c6-1.8,12.1-3.1,18.3-4.3
				c2.6-0.5,5.1-0.8,7.7-1.2c0.9-0.1,1.4,0.1,1.9,0.9c3.8,5.6,7.7,11,12,16.2c2.6,3.2,5.3,6.4,8.1,9.6c3.2,3.6,6.6,7,10.1,10.4
				c5.9,5.7,12.2,10.8,19.2,15.1c4,2.5,8.2,4.5,12.7,6.1C401.5,405.7,401.9,405.8,402.2,406.2z"></path>
                                        <path id="4" class="st5" d="M346.1,345.8c0.5-0.3,0.9-0.2,1.4-0.2c20.2-4.3,39.3-4.2,59.9-0.8c13.3,2.4,18.5,2.4,24.2,8.2
				c5.6,6.6,8.8,14.4,5.7,22.3c-2.5,6.9-4.1,8.9-10.1,14.3c-4.4,4.3-9.3,6.9-14.3,10.5c-1.3,1-2.6,1.2-4.2,0.9
				c-8.5-1.8-15.9-5.6-22.7-10.9c-6.5-5.2-12.4-11.1-18.1-17c-4.8-5-9.1-10.4-13.4-15.8c-2.7-3.4-5.4-6.9-8.1-10.3
				C346.3,346.5,346.1,346.3,346.1,345.8z"></path>
                                        <path id="2" class="st5" d="M525.1,324.4c-2.8-0.7-5.8-1.7-8.5-2.3c-8.1-2-16.2-3.8-24.3-5.9c-7.1-1.8-14.2-3.9-21.3-5.9
				c-1.2-0.3-1.2-0.5-0.5-1.6c4.9-8.1,9.9-16.3,14.8-24.4c1-1.7,0.9-1.6,2.7-0.9c9.5,4.1,19.1,8,28.7,12c4.3,1.8,7.1,3,11.3,4.8
				c1.3,0.5,1.9,1.5,1.6,2.7C529.1,303.8,525.4,317,525.1,324.4z"></path>
                                    </g>
                                    <path id="1" class="st5" d="M489.4,277.6l42.8,17.4c0,0,6.6-12.2,12.4-25.6c3.8-8.7-9.4-27.3-33.5-12.3
			C501.2,263.2,489.4,277.6,489.4,277.6z"></path>
                                    <path id="8" class="st5" d="M400.2,536.8l14.2-1.3c0,0,5.6,23,8.8,31c1.2,3.1,5.9,7.3,9.2,7.9c2.4,0.4,11.1-1,11.1-1l16.5-3.1l-18,6.4
			l18,1.1l-24,5.3l16.9,11.5l-28.3-11.1l-10.4-5.4l-15.2,5.7l12.1-11.1L400.2,536.8z"></path>
                                </g>
                            </g>
                        </svg>